<?xml version="1.0" standalone="no"?>
<!DOCTYPE svg PUBLIC "-//W3C//DTD SVG 20010904//EN"
 "http://www.w3.org/TR/2001/REC-SVG-20010904/DTD/svg10.dtd">
<svg version="1.0" xmlns="http://www.w3.org/2000/svg"
 width="1381.000000pt" height="1600.000000pt" viewBox="0 0 1381.000000 1600.000000"
 preserveAspectRatio="xMidYMid meet">

<g transform="translate(0.000000,1600.000000) scale(0.100000,-0.100000)"
fill="#000000" stroke="none">
<path d="M6360 15565 c-491 -44 -852 -107 -1290 -227 -809 -220 -1578 -595
-2246 -1096 -1151 -863 -1962 -2057 -2309 -3397 -255 -984 -251 -2028 10
-3011 350 -1316 1160 -2500 2290 -3349 544 -408 1169 -743 1795 -960 58 -20
123 -42 145 -50 126 -44 434 -129 640 -175 720 -162 1507 -205 2270 -124 1097
116 2183 513 3075 1122 731 499 1352 1134 1802 1843 257 404 480 865 628 1294
211 615 320 1272 320 1925 0 552 -73 1079 -225 1620 -227 805 -635 1570 -1209
2260 -135 163 -536 569 -696 706 -521 446 -1092 806 -1695 1069 -452 197
-1002 366 -1460 449 -49 9 -112 21 -140 26 -50 9 -200 30 -350 50 -318 40
-1030 53 -1355 25z m1115 -114 c247 -27 306 -34 400 -47 1251 -181 2371 -678
3335 -1480 200 -166 600 -566 764 -763 361 -434 662 -907 871 -1371 31 -69 62
-138 70 -155 68 -150 185 -486 243 -695 154 -555 216 -1015 216 -1585 0 -370
-22 -638 -80 -975 -182 -1054 -630 -2003 -1352 -2860 -145 -172 -546 -569
-724 -718 -481 -400 -977 -712 -1528 -962 -571 -258 -1235 -447 -1855 -529
-191 -26 -251 -32 -445 -46 -385 -28 -897 -16 -1280 29 -1094 130 -2102 505
-2995 1115 -865 589 -1576 1394 -2039 2306 -556 1094 -752 2301 -571 3522 63
423 191 891 358 1303 80 198 111 265 214 467 678 1335 1861 2403 3298 2978
642 257 1303 412 1980 465 77 6 160 12 185 14 93 8 839 -3 935 -13z"/>
<path d="M7165 15059 c-49 -12 -101 -60 -128 -119 -16 -36 -21 -66 -21 -145
-1 -144 23 -185 157 -262 42 -25 82 -53 87 -63 21 -40 7 -121 -24 -142 -6 -4
-25 -8 -43 -8 -42 0 -71 37 -79 101 l-7 49 -68 0 -69 0 0 -58 c0 -68 23 -155
53 -196 38 -53 156 -88 224 -66 64 21 103 58 137 129 29 62 31 73 31 181 0
108 -2 118 -28 162 -29 49 -76 87 -164 132 -78 39 -94 85 -48 132 41 41 93 15
104 -53 l6 -38 73 -3 72 -3 0 30 c0 97 -47 196 -106 224 -43 21 -111 28 -159
16z"/>
<path d="M6500 14610 l0 -450 195 0 195 0 0 110 0 110 -120 0 -120 0 0 340 0
340 -75 0 -75 0 0 -450z"/>
<path d="M5980 14993 c-72 -11 -72 -10 -66 -56 3 -23 17 -136 31 -252 46 -376
65 -529 71 -559 6 -27 8 -28 53 -23 353 42 341 40 341 62 0 18 -21 187 -24
192 -1 1 -53 -5 -116 -13 -63 -7 -118 -14 -122 -14 -4 0 -10 26 -13 58 -4 31
-22 180 -41 330 -19 150 -34 275 -34 277 0 5 -41 4 -80 -2z"/>
<path d="M7886 14958 c-3 -13 -24 -120 -46 -238 -23 -118 -59 -303 -80 -410
-21 -107 -35 -198 -32 -202 11 -10 131 -33 138 -25 4 3 21 81 39 172 18 91 35
168 38 171 5 5 158 -23 166 -31 2 -3 -11 -81 -29 -175 -18 -94 -30 -173 -27
-176 10 -10 132 -32 139 -26 3 4 29 126 58 272 28 146 66 339 84 430 18 91 32
166 31 167 -1 2 -34 9 -74 17 -52 9 -74 10 -76 2 -2 -6 -16 -74 -31 -151 -15
-77 -28 -141 -29 -142 -1 -2 -40 4 -88 13 -85 16 -86 16 -81 43 2 14 16 82 29
151 13 68 23 126 21 128 -5 4 -117 31 -133 32 -7 0 -15 -10 -17 -22z"/>
<path d="M5630 14943 c-36 -8 -68 -18 -72 -21 -4 -4 0 -34 8 -67 8 -33 48
-207 89 -386 41 -179 76 -332 79 -340 2 -8 7 -26 10 -41 5 -21 12 -28 29 -28
24 1 113 23 121 30 2 3 -6 50 -19 105 -113 494 -175 758 -177 760 -2 1 -32 -4
-68 -12z"/>
<path d="M5348 14868 c-51 -13 -79 -26 -82 -37 -3 -9 -19 -83 -36 -166 -18
-82 -35 -156 -39 -163 -7 -12 -39 97 -73 246 l-12 54 -35 -6 c-62 -10 -111
-27 -111 -37 0 -12 209 -851 213 -855 3 -2 137 33 141 37 2 2 -8 50 -22 107
l-25 103 19 75 c11 42 23 76 28 76 5 0 50 -69 99 -153 49 -85 91 -156 93 -157
1 -2 34 3 72 12 126 29 132 -1 -49 275 -87 134 -159 246 -159 250 0 4 20 83
45 175 25 93 45 173 45 178 0 12 -25 9 -112 -14z"/>
<path d="M8511 14723 c-18 -71 -66 -249 -106 -398 -40 -148 -76 -286 -80 -305
l-6 -35 67 -18 c37 -10 70 -15 74 -10 4 4 19 53 34 108 14 55 53 199 85 320
117 436 113 418 99 426 -7 5 -33 13 -58 18 -25 5 -52 12 -60 15 -12 5 -22 -20
-49 -121z"/>
<path d="M8945 14682 c-108 -51 -219 -225 -271 -427 -21 -83 -25 -118 -22
-200 4 -124 27 -173 102 -220 44 -27 58 -30 126 -30 64 0 87 5 138 29 57 27
62 32 80 85 62 172 102 290 102 299 0 13 -211 85 -220 75 -7 -7 -30 -71 -50
-135 -8 -26 -6 -28 41 -43 27 -9 49 -18 49 -21 0 -2 -7 -22 -16 -45 -18 -45
-43 -59 -102 -59 -83 0 -114 68 -88 194 19 91 66 210 106 264 66 92 172 72
174 -33 1 -32 1 -33 60 -39 97 -10 93 -12 100 48 8 68 -7 149 -35 188 -49 68
-197 106 -274 70z"/>
<path d="M4603 14650 c-56 -13 -119 -57 -139 -97 -28 -56 -26 -161 5 -241 41
-108 138 -182 238 -182 19 0 55 -5 80 -11 55 -14 83 -53 83 -116 0 -46 -25
-73 -66 -73 -29 0 -78 42 -94 80 -7 16 -16 30 -21 30 -9 0 -120 -48 -127 -55
-6 -6 56 -116 81 -145 54 -61 90 -80 156 -80 174 0 257 134 205 333 -44 171
-129 243 -298 255 -66 4 -84 9 -103 28 -44 44 -20 114 39 114 19 0 37 -12 61
-42 l35 -42 61 29 c34 16 61 30 61 32 0 16 -49 93 -82 129 -52 57 -101 72
-175 54z"/>
<path d="M9453 14382 c-30 -64 -68 -144 -83 -177 -15 -33 -62 -134 -105 -225
-43 -91 -90 -193 -106 -228 l-28 -62 64 -32 c41 -20 68 -29 74 -23 5 6 39 75
76 155 36 80 70 148 74 153 7 7 161 -57 161 -66 0 -3 -21 -49 -46 -103 -25
-55 -55 -119 -66 -144 -11 -25 -25 -53 -30 -62 -7 -15 2 -23 61 -52 l69 -33
70 151 c256 549 302 648 302 654 0 9 -105 62 -123 62 -7 0 -42 -61 -77 -135
-35 -74 -66 -135 -69 -135 -20 0 -151 66 -151 76 0 6 27 69 60 138 33 70 60
130 60 134 0 5 -30 22 -66 39 l-66 32 -55 -117z"/>
<path d="M3714 14217 c-56 -28 -112 -59 -124 -68 l-23 -15 170 -320 c94 -175
187 -352 208 -391 l38 -73 111 58 c60 31 125 72 143 91 80 82 68 222 -36 431
-81 162 -173 275 -260 320 -66 33 -112 27 -227 -33z m253 -202 c52 -56 141
-229 149 -289 5 -34 2 -52 -10 -71 -16 -24 -73 -61 -82 -52 -10 10 -224 418
-224 427 0 18 62 40 95 35 19 -3 45 -21 72 -50z"/>
<path d="M9924 13803 c-137 -196 -249 -363 -249 -370 0 -10 299 -227 330 -239
12 -5 118 143 111 154 -2 4 -51 41 -109 82 l-104 74 49 73 c27 40 51 73 54 73
3 0 47 -29 99 -65 51 -36 97 -65 101 -65 5 0 30 31 56 69 l47 69 -62 43 c-34
23 -79 56 -100 72 l-37 29 42 59 c37 53 43 58 60 47 10 -7 58 -41 107 -76 l90
-62 25 35 c15 19 37 50 51 69 14 19 25 39 25 44 0 7 -269 201 -326 235 -6 3
-114 -143 -260 -350z"/>
<path d="M3278 13952 c-26 -20 -47 -41 -47 -47 0 -5 65 -93 144 -195 79 -102
142 -186 140 -188 -1 -2 -98 54 -214 123 -116 69 -218 128 -225 131 -17 7
-116 -66 -113 -83 3 -15 530 -692 540 -692 10 -1 107 72 107 80 0 7 -136 185
-238 312 -30 37 -53 69 -51 71 2 3 101 -54 219 -125 118 -71 221 -129 228
-129 14 0 111 70 112 81 0 3 -86 115 -191 250 -105 134 -227 290 -271 347 -43
56 -82 102 -86 102 -4 -1 -28 -18 -54 -38z"/>
<path d="M6730 13844 c-234 -10 -453 -32 -660 -65 -1807 -290 -3293 -1568
-3778 -3249 -116 -399 -164 -750 -164 -1185 0 -509 71 -938 236 -1415 121
-349 270 -647 492 -980 187 -282 343 -472 593 -720 597 -592 1358 -1019 2191
-1231 545 -138 1110 -186 1660 -139 1252 106 2383 659 3207 1569 485 535 834
1189 1007 1886 91 366 120 612 120 1020 1 304 -6 411 -40 640 -194 1302 -986
2462 -2161 3167 -660 397 -1393 629 -2163 687 -158 12 -433 19 -540 15z m517
-129 c431 -35 766 -101 1153 -227 968 -314 1810 -936 2373 -1752 212 -308 383
-639 504 -976 109 -306 180 -610 225 -960 21 -167 18 -778 -5 -950 -69 -514
-199 -941 -423 -1390 -571 -1141 -1660 -2004 -2956 -2344 -403 -105 -803 -156
-1238 -156 -620 0 -1181 105 -1780 333 -282 107 -665 310 -935 495 -634 435
-1142 1011 -1473 1671 -241 480 -367 908 -434 1476 -20 168 -17 684 5 860 107
866 422 1597 978 2270 110 133 438 460 569 566 309 251 565 419 880 579 785
396 1688 575 2557 505z"/>
<path d="M6470 13505 c-1564 -145 -2911 -1038 -3580 -2374 -256 -511 -395
-1044 -419 -1601 -35 -858 175 -1633 642 -2365 299 -469 738 -913 1217 -1232
655 -435 1375 -685 2172 -753 277 -24 688 -13 993 26 1344 170 2550 947 3233
2082 704 1170 760 2616 150 3837 -624 1248 -1855 2126 -3288 2344 -332 50
-801 65 -1120 36z m860 -120 c438 -46 823 -139 1210 -292 1373 -544 2360
-1726 2589 -3103 63 -378 69 -827 15 -1198 -214 -1483 -1286 -2743 -2774
-3261 -324 -113 -652 -186 -1020 -227 -192 -22 -715 -25 -890 -6 -478 53 -832
139 -1238 298 -565 223 -1052 543 -1477 970 -1053 1057 -1427 2572 -978 3959
120 372 277 690 500 1020 254 375 634 761 1025 1043 234 169 644 393 908 498
470 185 961 290 1490 318 122 7 505 -5 640 -19z"/>
<path d="M4718 12386 c-138 -154 -154 -204 -123 -401 l18 -114 -49 -45 c-77
-68 -136 -117 -140 -114 -2 2 -10 87 -19 188 -9 102 -20 196 -25 210 l-8 25
-1 -25 c-1 -14 -6 -65 -11 -115 -5 -49 -14 -139 -20 -200 -23 -243 -36 -278
-143 -383 l-64 -64 -15 69 c-9 37 -31 143 -49 236 -19 92 -36 167 -39 167 -15
0 -83 -105 -96 -146 -30 -100 -16 -200 54 -387 l38 -101 -65 -113 c-36 -62
-69 -113 -72 -113 -6 0 -32 64 -125 318 l-49 133 -16 -88 c-35 -185 -43 -270
-31 -311 7 -22 41 -80 76 -131 l65 -91 -41 -111 c-32 -86 -43 -108 -52 -97
-12 13 -25 42 -101 219 -20 48 -49 98 -64 113 -27 26 -91 46 -91 29 0 -6 36
-116 80 -246 45 -130 83 -258 87 -285 6 -51 -32 -292 -46 -292 -4 0 -31 41
-61 90 -129 213 -146 234 -210 247 -20 3 -30 1 -30 -6 0 -7 43 -103 96 -214
118 -248 144 -315 144 -387 0 -58 -19 -232 -26 -240 -3 -2 -77 68 -165 155
-137 136 -160 156 -155 130 18 -103 60 -281 71 -308 18 -44 41 -63 143 -117
l87 -47 3 -148 c2 -119 0 -146 -10 -138 -71 57 -338 240 -323 222 32 -38 166
-190 212 -239 69 -75 119 -143 135 -185 14 -37 45 -252 37 -260 -4 -3 -108 46
-291 137 -43 21 -78 36 -78 34 0 -3 60 -55 133 -117 165 -139 244 -216 264
-253 18 -34 73 -214 73 -238 0 -10 -4 -18 -8 -18 -4 0 -94 29 -200 64 -106 36
-191 62 -189 58 29 -53 145 -239 164 -262 44 -52 77 -63 205 -68 l116 -4 37
-115 c21 -62 36 -115 34 -117 -2 -2 -92 12 -199 30 -107 17 -196 31 -198 29
-7 -7 140 -195 174 -223 67 -55 166 -65 289 -28 36 11 46 11 55 1 15 -18 110
-206 110 -218 0 -6 -73 -8 -206 -4 l-207 5 84 -85 c112 -113 153 -143 198
-143 20 0 87 13 148 29 l113 29 71 -100 c39 -55 69 -101 67 -102 -1 -2 -91
-18 -198 -35 -107 -18 -196 -33 -197 -35 -3 -3 143 -107 192 -137 31 -19 54
-24 105 -24 67 0 108 14 197 69 l42 26 82 -72 82 -73 -49 -21 c-27 -12 -67
-25 -89 -29 -67 -11 -138 -34 -172 -55 -38 -23 -71 -78 -51 -85 7 -2 58 -19
113 -38 157 -55 166 -57 201 -57 23 0 47 12 86 43 29 24 72 56 95 70 l42 26
88 -40 c129 -60 193 -88 193 -85 0 2 -56 38 -125 80 -69 43 -127 82 -130 86
-6 9 -49 371 -61 508 -4 39 -11 72 -15 72 -14 0 -57 -74 -75 -130 -13 -41 -16
-73 -11 -153 3 -56 10 -114 16 -130 15 -39 -1 -34 -62 21 -29 26 -67 59 -85
74 l-32 27 -1 288 0 288 -33 -110 c-66 -219 -89 -290 -96 -298 -4 -4 -41 34
-83 85 l-75 94 8 44 c13 64 80 487 80 502 0 14 -135 -116 -151 -145 -6 -10
-19 -63 -29 -117 -11 -55 -23 -107 -28 -116 -7 -13 -22 7 -70 90 l-61 106 61
97 c71 113 101 178 117 251 13 61 15 181 3 200 -6 8 -50 -46 -133 -163 l-124
-174 -23 27 c-32 37 -59 91 -72 144 -11 41 -9 49 23 118 112 244 189 421 186
424 -2 2 -64 -61 -138 -140 -74 -79 -138 -141 -142 -137 -8 10 -69 218 -69
237 0 8 63 112 140 232 78 119 138 219 135 222 -3 3 -33 -8 -68 -24 -122 -57
-147 -75 -169 -118 -23 -46 -78 -119 -85 -113 -3 4 -32 208 -33 234 0 6 76
109 170 229 93 119 169 219 167 220 -4 4 -158 -51 -193 -69 -18 -9 -45 -34
-61 -57 -30 -40 -81 -86 -88 -78 -2 2 -7 57 -10 123 l-7 120 99 89 c184 168
293 269 290 272 -2 2 -79 -30 -171 -71 -92 -41 -172 -75 -177 -75 -13 0 1 222
15 236 6 6 81 48 166 92 248 129 259 136 270 160 15 34 12 69 -6 76 -45 17
-150 -3 -287 -56 -43 -16 -81 -28 -83 -25 -7 6 35 209 44 218 4 4 109 53 234
110 125 57 226 104 225 105 -1 1 -85 -5 -186 -13 -101 -8 -185 -12 -188 -9 -9
9 72 238 87 246 8 4 114 32 235 61 121 29 224 55 228 59 4 4 -70 13 -165 20
-95 7 -180 15 -189 19 -14 5 -8 24 40 121 l57 115 80 7 c204 17 408 39 412 43
3 3 3 5 -1 5 -5 0 -199 49 -319 81 -21 5 -38 14 -38 20 0 17 84 142 114 168
l26 25 246 -33 c135 -18 248 -31 250 -28 8 7 -116 156 -134 161 -9 2 -42 10
-72 17 -96 21 -158 57 -134 78 5 4 39 31 75 59 l66 52 237 -60 c130 -33 242
-60 248 -60 6 0 -62 54 -150 120 -89 66 -162 123 -162 127 1 5 38 33 84 64 83
55 85 56 176 62 194 14 309 65 366 163 32 55 48 114 30 114 -7 0 -100 -25
-206 -55 -106 -30 -195 -55 -196 -55 -2 0 -19 -24 -37 -52 -19 -29 -54 -72
-80 -95 -43 -40 -164 -109 -174 -100 -2 3 7 40 21 83 38 119 50 213 37 290
-21 118 -17 117 -103 20z"/>
<path d="M9151 12430 c-31 -104 -24 -207 24 -358 13 -42 22 -78 20 -80 -6 -7
-108 48 -155 84 -25 19 -65 63 -89 98 l-42 63 -107 31 c-275 79 -312 89 -312
83 0 -4 7 -30 15 -57 39 -131 169 -204 391 -220 87 -6 91 -8 176 -63 48 -31
88 -59 88 -63 0 -4 -73 -61 -162 -127 -89 -67 -157 -121 -152 -121 6 0 117 27
248 60 l237 60 74 -57 c62 -48 72 -60 64 -75 -12 -21 -54 -40 -129 -57 -30 -7
-63 -15 -72 -18 -20 -5 -143 -151 -135 -159 3 -3 117 9 252 27 l248 34 41 -46
c42 -47 102 -146 93 -155 -3 -3 -83 -25 -178 -50 -156 -40 -200 -54 -173 -54
5 0 77 -7 159 -15 83 -8 190 -18 238 -21 l89 -7 56 -114 c44 -89 54 -116 44
-122 -8 -5 -55 -11 -105 -15 -220 -15 -258 -19 -250 -26 4 -4 98 -28 208 -54
293 -69 256 -48 304 -182 23 -63 41 -120 41 -125 0 -11 -19 -11 -215 5 -88 8
-161 13 -162 12 -2 -2 100 -49 225 -105 125 -57 230 -106 234 -109 9 -10 51
-213 44 -219 -2 -3 -47 11 -98 30 -114 42 -190 60 -243 55 -38 -3 -40 -5 -43
-38 -5 -57 -16 -49 291 -209 87 -46 160 -88 162 -95 9 -29 14 -226 6 -226 -5
0 -85 34 -177 75 -92 41 -169 73 -171 71 -2 -2 85 -84 193 -182 l196 -179 -7
-120 c-3 -66 -8 -121 -10 -124 -7 -7 -58 39 -88 79 -16 23 -42 47 -58 56 -35
18 -192 74 -197 70 -1 -2 74 -101 168 -220 l171 -217 -12 -101 c-6 -55 -14
-111 -18 -125 l-6 -24 -22 23 c-12 13 -37 49 -55 82 -26 46 -43 64 -84 85 -78
40 -155 74 -160 69 -2 -3 59 -103 136 -223 77 -119 140 -224 140 -231 0 -20
-61 -227 -70 -237 -4 -4 -33 21 -65 55 -73 80 -217 228 -220 228 -3 0 26 -64
175 -395 l50 -110 -14 -54 c-8 -29 -31 -78 -51 -108 l-37 -55 -51 72 c-137
192 -204 279 -210 273 -12 -11 -7 -166 7 -218 19 -74 46 -130 114 -237 l60
-96 -56 -98 c-30 -55 -57 -101 -59 -103 -11 -14 -27 29 -43 117 -10 55 -23
108 -28 118 -19 35 -152 159 -152 142 0 -15 60 -390 79 -491 l8 -49 -74 -94
c-41 -52 -78 -94 -82 -94 -4 0 -24 57 -44 128 -21 70 -48 161 -62 202 l-24 75
-1 -282 0 -281 -86 -76 c-48 -42 -90 -76 -95 -76 -4 0 -2 17 4 38 6 20 11 89
11 152 1 100 -2 121 -22 160 -23 46 -60 96 -65 89 -2 -2 -16 -114 -31 -249
-15 -135 -31 -265 -35 -290 -6 -44 -7 -45 -130 -122 -68 -42 -126 -79 -128
-82 -3 -3 58 24 135 60 l141 65 42 -27 c23 -14 66 -46 96 -70 37 -30 63 -44
84 -44 28 0 238 65 302 93 l27 12 -20 32 c-25 41 -61 60 -174 87 -50 13 -111
32 -135 42 l-45 20 83 72 82 73 42 -26 c89 -56 130 -70 198 -70 65 0 66 0 182
79 65 43 116 80 115 82 -2 1 -91 17 -198 35 -107 17 -197 33 -199 35 -3 3 99
153 126 185 13 15 23 14 126 -12 183 -47 189 -45 346 114 l84 86 -208 -6 -207
-6 7 24 c7 25 91 186 106 205 7 9 21 8 54 -2 123 -37 222 -27 289 28 34 28
181 216 174 223 -2 2 -91 -12 -198 -29 -107 -18 -197 -32 -199 -30 -2 2 13 55
34 117 l37 115 116 4 c83 3 126 9 149 21 39 21 86 79 143 177 23 41 51 89 62
107 l19 32 -193 -65 c-106 -35 -198 -64 -204 -64 -8 0 -5 27 12 88 51 188 56
194 297 399 86 74 157 136 157 139 0 2 -24 -8 -52 -22 -29 -14 -111 -53 -183
-88 -104 -51 -131 -60 -133 -47 -6 38 27 232 47 273 11 23 82 111 156 193 221
244 220 243 34 110 -90 -65 -170 -122 -176 -128 -10 -7 -13 21 -13 137 l0 146
71 37 c97 52 129 74 151 103 16 22 62 202 82 325 7 40 6 39 -153 -120 -88 -87
-162 -157 -165 -155 -7 8 -26 182 -26 240 0 72 26 139 144 387 53 111 96 207
96 214 0 7 -10 9 -30 6 -64 -13 -81 -34 -210 -247 -30 -49 -57 -90 -61 -90
-14 0 -51 234 -46 288 3 29 42 159 86 289 45 130 81 240 81 246 0 16 -62 -2
-88 -26 -24 -21 -102 -172 -102 -196 0 -16 -70 -154 -75 -149 -3 2 -23 52 -44
111 l-40 107 64 91 c36 51 70 109 77 131 12 42 4 127 -31 310 l-17 88 -83
-225 c-46 -124 -86 -225 -90 -225 -3 0 -36 51 -72 113 l-66 112 24 65 c76 200
76 201 77 310 1 92 -2 111 -22 151 -26 50 -84 118 -89 103 -1 -5 -21 -99 -43
-209 -23 -110 -44 -213 -47 -228 l-6 -29 -69 69 c-70 69 -93 102 -110 157 -8
28 -58 480 -58 527 0 10 -4 19 -8 19 -5 0 -16 -91 -26 -202 -10 -112 -20 -205
-21 -207 -2 -2 -46 34 -98 79 l-94 81 18 102 c37 210 21 259 -143 441 l-54 59
-13 -43z"/>
<path d="M6840 11680 c-36 -21 -99 -60 -140 -85 -41 -26 -108 -65 -148 -87
-61 -33 -71 -42 -61 -54 6 -8 19 -14 29 -14 38 0 44 -25 26 -109 -16 -72 -16
-83 -1 -152 19 -87 44 -149 59 -149 6 1 23 6 39 13 l27 12 -42 64 c-32 49 -43
76 -46 117 -5 55 13 150 30 160 6 4 34 -2 64 -12 l54 -18 78 38 c46 22 88 36
102 34 22 -3 20 -7 -25 -31 -55 -29 -85 -51 -85 -61 0 -3 8 -6 18 -6 9 0 23
-4 31 -9 11 -7 6 -19 -27 -56 -64 -73 -85 -125 -85 -210 1 -86 26 -151 81
-209 61 -63 181 -109 195 -73 3 6 51 117 106 246 56 129 98 237 95 240 -3 3
-37 -11 -75 -31 -37 -21 -72 -38 -76 -38 -4 1 23 29 61 64 l69 63 -38 23 -37
23 26 14 c14 8 41 24 59 36 18 12 72 42 120 67 58 30 86 50 85 60 -2 9 -46 29
-118 53 -63 21 -163 56 -222 77 -60 22 -120 40 -135 40 -16 -1 -57 -18 -93
-40z"/>
<path d="M7841 11559 c-6 -36 -11 -79 -11 -96 0 -17 -7 -50 -15 -73 -8 -23
-15 -59 -15 -79 0 -53 -21 -114 -78 -228 -113 -224 -272 -355 -517 -425 -71
-20 -99 -23 -255 -21 -332 3 -611 62 -902 189 -124 55 -130 42 -15 -34 183
-120 490 -387 624 -543 254 -296 390 -555 448 -854 25 -125 25 -379 1 -495
-23 -107 -60 -217 -101 -300 -38 -78 -133 -238 -146 -246 -5 -3 -9 -10 -9 -15
0 -26 201 140 363 300 107 104 336 391 429 536 138 214 274 556 327 825 47
239 55 332 55 635 -1 247 -4 311 -23 433 -26 172 -94 450 -126 511 l-22 45
-12 -65z"/>
<path d="M8458 10353 c9 -18 20 -33 24 -33 5 0 6 -4 3 -10 -3 -5 0 -7 8 -4 8
3 18 0 22 -6 3 -6 3 -10 -2 -9 -29 7 -138 -74 -126 -94 3 -5 1 -7 -4 -4 -15 9
-77 -89 -69 -109 3 -8 2 -13 -3 -10 -17 11 -21 -25 -5 -50 9 -13 13 -24 9 -24
-4 0 -1 -8 6 -17 11 -16 11 -16 -1 -5 -8 7 -16 17 -16 23 -1 5 -2 14 -3 19 -2
21 -19 9 -23 -17 -3 -16 -7 -35 -9 -43 -3 -11 5 -15 36 -15 45 0 41 -10 36
110 -4 68 -3 75 10 75 8 0 7 -6 -2 -17 -7 -10 -1 -7 13 6 15 13 25 28 22 33
-3 5 -2 7 3 6 8 -3 53 37 53 46 0 3 -9 3 -20 1 -12 -2 -18 0 -15 6 4 5 11 7
16 4 5 -4 12 1 15 9 3 9 10 13 15 10 5 -3 6 -10 3 -16 -4 -7 -2 -8 5 -4 6 4 9
11 7 15 -3 4 4 12 14 19 12 7 21 8 25 2 4 -6 11 -8 16 -5 5 4 9 -1 9 -10 0 -8
7 -18 15 -21 8 -4 16 -18 16 -33 1 -17 3 -20 6 -8 2 9 8 15 13 12 5 -3 7 -12
4 -19 -7 -19 86 -42 97 -24 7 10 9 9 9 -3 0 -15 28 -26 82 -32 9 -1 15 -4 12
-8 -5 -8 35 -25 49 -21 10 3 -10 -35 -22 -42 -5 -3 -26 1 -47 9 -37 15 -9 13
33 -1 15 -6 16 -4 6 6 -8 8 -33 14 -63 13 -27 0 -47 3 -45 8 3 4 -11 12 -32
16 -49 10 -53 10 -52 -1 0 -5 -4 -12 -11 -16 -6 -4 -12 -13 -14 -21 -2 -17
-25 -57 -26 -46 0 5 -13 0 -29 -9 -17 -10 -28 -21 -25 -26 3 -4 16 0 30 8 13
9 27 14 31 10 3 -3 1 -6 -6 -6 -7 0 -9 -5 -5 -12 4 -6 3 -8 -2 -5 -14 8 -38
-9 -30 -22 10 -15 29 -14 20 2 -4 6 -3 9 1 4 5 -4 16 0 25 8 11 10 24 12 45 6
l30 -8 -35 -16 c-45 -20 -74 -17 -100 11 -26 27 -44 19 -36 -17 6 -26 6 -26
-7 -3 l-13 23 -25 -28 c-39 -46 -55 -67 -44 -61 6 4 17 2 25 -4 12 -8 12 -9
-3 -4 -10 3 -26 -3 -37 -14 -24 -24 -28 -49 -5 -30 12 10 16 9 21 -4 5 -13 9
-14 20 -5 11 9 14 6 14 -15 0 -33 -15 -33 -33 -1 -13 26 -13 26 -31 6 -22 -24
-36 -141 -17 -141 7 0 11 6 10 13 -1 6 0 26 1 42 l2 30 8 -30 c4 -19 2 -38 -7
-52 -18 -30 -17 -35 10 -31 19 3 22 8 20 43 -1 22 -5 58 -9 80 -5 37 -5 38 9
20 17 -24 34 -111 19 -101 -6 3 -9 -17 -8 -53 1 -45 -2 -57 -12 -53 -9 3 -11
14 -7 31 4 17 3 21 -3 12 -8 -11 -11 -11 -16 0 -3 8 -3 3 0 -11 4 -14 19 -43
35 -64 26 -35 35 -39 30 -13 -1 5 3 6 9 2 14 -9 131 45 124 57 -4 6 -10 5 -15
-3 -4 -7 -11 -10 -16 -6 -4 5 -1 13 7 18 12 9 12 10 -3 5 -10 -3 -21 -6 -23
-6 -3 0 -3 -4 0 -9 3 -5 -2 -15 -11 -22 -12 -10 -14 -10 -9 -1 4 6 2 12 -3 12
-6 0 -11 7 -11 15 0 8 5 15 11 15 5 0 7 -5 3 -11 -3 -6 5 -3 19 6 24 15 28 15
49 1 28 -20 50 -21 24 -1 -22 17 -14 20 12 6 22 -11 66 5 56 21 -5 8 -2 9 9 5
22 -8 110 31 101 45 -5 8 -1 9 11 4 16 -6 16 -4 4 11 -7 10 -14 19 -15 21 -1
2 -11 -2 -22 -9 -19 -12 -19 -14 -4 -27 16 -13 16 -13 0 -8 -11 3 -27 -4 -40
-17 l-22 -22 17 26 c11 18 12 30 5 37 -6 6 -6 12 2 17 18 11 134 14 147 3 12
-9 53 9 53 24 0 4 6 5 14 2 8 -3 17 -1 20 5 8 12 -58 26 -75 15 -7 -4 -10 -3
-6 3 6 10 -75 36 -110 36 -7 0 -13 6 -13 12 0 8 19 9 72 3 40 -5 93 -8 118 -6
42 3 45 5 55 40 5 20 13 40 18 44 14 14 7 26 -8 14 -13 -11 -14 -10 -9 5 5 13
4 16 -4 11 -7 -4 -20 -2 -29 4 -15 9 -12 10 15 7 17 -2 32 0 32 5 0 4 7 8 15
8 12 0 14 -7 9 -26 -5 -19 -3 -25 7 -23 8 1 34 0 59 -4 25 -3 73 -9 108 -11
35 -3 68 -8 75 -12 9 -5 9 -4 1 5 -7 7 -29 15 -50 18 -22 3 -43 12 -47 20 -6
10 -18 12 -38 8 -31 -7 -53 1 -43 16 4 6 10 6 19 -1 9 -7 21 -7 41 1 16 7 33
11 38 10 5 -1 6 5 2 14 -3 9 -2 14 3 11 14 -9 19 -55 7 -60 -6 -3 -2 -5 9 -3
11 1 26 -2 33 -6 6 -5 12 -5 12 -1 0 11 -50 76 -74 97 -12 10 -15 16 -8 12 11
-6 12 -3 3 14 -7 11 -16 21 -21 21 -6 0 -9 4 -8 9 4 13 -80 141 -92 141 -6 0
-8 -4 -5 -10 3 -5 0 -7 -9 -4 -12 4 -13 -1 -6 -32 10 -42 6 -54 -16 -54 -12 0
-14 7 -10 28 3 15 8 44 10 66 3 21 8 41 12 45 4 3 4 -2 1 -11 -7 -19 8 -34 18
-18 3 5 -8 30 -24 54 -41 59 -103 91 -165 84 -25 -3 -44 -2 -41 2 8 13 -129
22 -159 10 -37 -14 -43 -13 -20 5 17 13 17 14 2 15 -9 0 -20 -4 -23 -10 -3 -5
-12 -10 -18 -9 -9 0 -8 2 1 6 15 6 6 23 -13 23 -8 0 -12 -8 -10 -18 2 -12 -4
-18 -18 -19 -20 -2 -20 -1 -4 8 14 8 16 14 6 25 -6 8 -16 14 -21 14 -7 0 -6
-5 1 -13 8 -11 5 -17 -15 -26 -15 -6 -29 -9 -32 -6 -3 3 1 5 9 5 8 1 3 8 -11
16 -23 14 -14 13 28 -3 14 -6 15 -4 4 9 -7 9 -26 18 -41 20 l-29 4 16 -33z
m122 -42 c0 -5 -9 -11 -19 -14 -14 -3 -18 -1 -14 9 6 15 33 19 33 5z m120 -15
c0 -9 -7 -12 -21 -9 -14 4 -25 0 -31 -11 -5 -9 -20 -16 -33 -16 -25 0 -35 -23
-15 -35 5 -3 7 -12 4 -20 -8 -20 -24 -9 -24 16 0 22 -11 24 -29 7 -10 -11 -11
-10 -6 3 4 10 2 20 -4 24 -6 3 -11 12 -11 18 0 7 5 5 10 -5 12 -20 47 -13 55
12 8 27 105 41 105 16z m80 -7 c0 -5 -16 -9 -35 -7 -39 2 -47 15 -12 20 27 5
47 -1 47 -13z m115 11 c3 -5 18 -10 33 -10 18 0 37 -11 55 -31 31 -36 33 -41
10 -32 -12 5 -14 3 -7 -8 11 -18 6 -49 -12 -66 -12 -12 -14 -12 -14 1 0 9 4
16 9 16 5 0 9 11 9 25 0 15 -6 25 -15 25 -8 0 -11 5 -8 10 4 6 11 8 16 5 5 -4
9 -2 9 4 0 5 -10 13 -21 16 -17 6 -19 9 -8 16 10 6 3 8 -19 7 -19 -1 -36 -6
-38 -10 -7 -11 -76 -10 -94 2 -12 7 -12 12 -2 22 9 9 15 9 24 0 7 -7 25 -12
41 -12 25 0 28 2 17 15 -8 9 -9 15 -2 15 6 0 14 -4 17 -10z m-382 -27 c3 -5
-9 -9 -26 -10 -26 -1 -28 0 -12 7 26 11 33 12 38 3z m427 -23 c18 -12 2 -12
-25 0 -13 6 -15 9 -5 9 8 0 22 -4 30 -9z m-280 -21 c0 -6 -6 -17 -14 -25 -19
-18 -33 1 -16 21 15 18 30 20 30 4z m70 -69 c-37 -10 -58 0 -35 16 14 10 23
11 39 2 21 -12 21 -12 -4 -18z m-65 0 c3 -5 1 -10 -4 -10 -6 0 -11 5 -11 10 0
6 2 10 4 10 3 0 8 -4 11 -10z m-300 -10 c3 -5 1 -10 -4 -10 -6 0 -11 5 -11 10
0 6 2 10 4 10 3 0 8 -4 11 -10z m415 -11 c0 -5 5 -7 12 -3 7 4 8 3 4 -4 -4 -7
-19 -12 -34 -12 -22 0 -24 2 -12 11 11 8 8 9 -15 5 -22 -5 -26 -4 -15 4 20 13
60 13 60 -1z m300 -24 l25 -30 -27 24 c-16 14 -28 29 -28 34 0 6 1 8 3 6 1 -2
13 -17 27 -34z m-455 -45 c-9 -15 6 -41 19 -31 11 9 42 -1 98 -30 10 -5 30 -9
45 -8 l28 1 -25 8 -25 8 27 1 c15 1 30 6 33 11 4 6 10 8 15 5 5 -3 11 -1 15 5
3 5 1 10 -6 10 -8 0 -8 4 1 15 7 8 18 15 24 14 7 0 6 -2 -1 -6 -7 -2 -13 -9
-13 -14 0 -6 4 -8 9 -4 15 9 24 -16 11 -28 -10 -9 -11 -9 -5 2 6 10 4 12 -4 7
-7 -5 -10 -14 -7 -22 4 -11 1 -12 -13 -5 -14 8 -23 6 -36 -9 -23 -25 -46 -25
-96 0 -22 11 -50 19 -64 17 -25 -3 -47 -17 -27 -17 7 0 12 -5 12 -10 0 -6 -10
-4 -23 5 -13 8 -28 12 -32 8 -5 -5 -3 0 4 9 7 9 10 21 7 26 -3 6 1 15 9 22 8
7 12 17 8 23 -3 6 -1 7 6 3 6 -4 9 -11 6 -16z m335 -11 c0 -11 -4 -17 -10 -14
-5 3 -10 13 -10 21 0 8 5 14 10 14 6 0 10 -9 10 -21z m0 -64 c0 -14 -4 -25
-10 -25 -11 0 -14 33 -3 43 11 11 13 8 13 -18z m190 19 c0 -8 -19 -13 -24 -6
-3 5 1 9 9 9 8 0 15 -2 15 -3z m-305 -14 c3 -5 1 -10 -4 -10 -6 0 -11 5 -11
10 0 6 2 10 4 10 3 0 8 -4 11 -10z m289 -32 c-6 -20 -5 -21 9 -10 13 11 15 10
10 -8 -5 -18 -8 -20 -20 -8 -7 8 -11 22 -7 31 9 25 16 21 8 -5z m-630 -47 c-6
-6 -24 19 -24 34 1 6 7 1 15 -9 8 -11 12 -22 9 -25z m239 22 c-7 -2 -21 -2
-30 0 -10 3 -4 5 12 5 17 0 24 -2 18 -5z m137 -20 c0 -13 -37 -28 -60 -24 -20
4 -21 6 -15 23 7 18 75 19 75 1z m30 13 c0 -3 -4 -8 -10 -11 -5 -3 -10 -1 -10
4 0 6 5 11 10 11 6 0 10 -2 10 -4z m-450 -38 c0 -11 7 -26 17 -33 24 -18 10
-42 -26 -43 -34 -1 -34 -1 -25 22 5 13 9 14 20 5 16 -13 17 -8 5 43 -5 22 -5
36 0 32 5 -3 9 -15 9 -26z m-29 -15 c-12 -20 -14 -14 -5 12 4 9 9 14 11 11 3
-2 0 -13 -6 -23z m367 -19 c-4 -3 -16 -3 -27 1 -17 5 -18 9 -8 20 10 11 14 11
26 -1 8 -7 12 -16 9 -20z m-113 6 c3 -5 17 -10 31 -10 13 0 24 -4 24 -10 0 -5
-9 -10 -19 -10 -11 0 -23 5 -26 10 -3 6 -19 10 -36 10 -16 0 -29 5 -29 10 0 6
11 10 24 10 14 0 28 -4 31 -10z m233 -31 c4 -20 -27 -34 -42 -19 -8 8 -6 9 7
5 9 -4 17 -3 17 3 0 6 -8 9 -17 7 -10 -2 -25 -4 -33 -4 -13 -1 -13 -2 0 -11
13 -8 12 -10 -2 -10 -10 0 -18 3 -18 7 0 3 8 14 18 24 21 22 66 20 70 -2z
m-101 -14 c0 -17 -44 -20 -67 -5 -11 8 -8 9 11 4 15 -3 30 -1 33 5 10 16 23
13 23 -4z m-157 -5 c0 -5 -2 -10 -4 -10 -3 0 -8 5 -11 10 -3 6 -1 10 4 10 6 0
11 -4 11 -10z m-193 -76 c-11 -36 -27 -36 -27 0 0 26 5 33 24 33 10 0 11 -7 3
-33z m287 17 c14 -22 -56 -28 -74 -6 -11 13 -7 15 28 15 23 0 43 -4 46 -9z
m102 -48 c-3 -3 -12 0 -20 6 -8 7 -20 10 -26 6 -5 -3 -15 -3 -21 1 -8 4 -7 9
2 15 13 8 75 -18 65 -28z m-196 -3 c0 -5 -4 -10 -10 -10 -5 0 -10 5 -10 10 0
6 5 10 10 10 6 0 10 -4 10 -10z m8 -43 c13 4 14 3 3 -5 -7 -5 -10 -15 -7 -21
4 -6 3 -11 -2 -11 -11 0 -22 25 -21 43 0 9 2 9 5 0 3 -7 13 -9 22 -6z m-215
-65 c-7 -4 -11 -16 -10 -26 1 -10 -4 -21 -11 -23 -8 -3 -12 4 -11 24 1 15 -2
35 -5 45 -5 11 -2 17 11 20 21 5 43 -30 26 -40z"/>
<path d="M8605 10020 c-3 -5 -1 -10 4 -10 6 0 11 5 11 10 0 6 -2 10 -4 10 -3
0 -8 -4 -11 -10z"/>
<path d="M5813 10256 c-133 -65 -240 -131 -253 -157 -6 -10 -24 -89 -40 -176
-17 -87 -34 -175 -39 -196 l-9 -38 63 36 c62 34 64 35 120 23 48 -9 62 -9 91
5 40 19 41 16 13 -30 -27 -43 -21 -67 33 -128 95 -108 220 -112 326 -11 85 81
115 201 73 285 -35 68 -126 131 -190 131 -14 0 -49 13 -78 29 l-52 29 -32 -22
c-76 -50 -90 -54 -69 -19 7 10 25 26 40 35 16 9 42 40 59 70 16 29 34 59 38
67 7 10 17 11 49 2 57 -15 86 -41 120 -106 24 -46 33 -55 57 -55 32 0 36 24
12 70 -19 37 -53 61 -140 97 -69 29 -70 30 -75 72 l-5 42 -112 -55z"/>
<path d="M6320 10265 c0 -3 16 -53 35 -110 19 -58 40 -137 46 -176 45 -291
-152 -574 -531 -763 -58 -29 -121 -59 -140 -66 -35 -13 -35 -14 -8 -17 15 -2
68 3 118 11 49 9 141 16 204 16 232 0 409 -64 541 -196 109 -108 143 -219 161
-524 l7 -125 19 42 c19 42 49 156 69 256 47 238 60 492 35 667 -33 221 -99
426 -184 567 -55 92 -194 274 -244 319 -50 46 -128 106 -128 99z"/>
<path d="M8055 9946 c-7 -34 -4 -59 11 -103 6 -16 5 -16 -9 2 -14 18 -15 16
-22 -40 -4 -33 -11 -77 -17 -99 -5 -21 -7 -49 -4 -62 4 -13 3 -24 -2 -24 -4 0
-14 -24 -21 -52 -15 -63 -59 -214 -71 -245 -5 -12 -7 -31 -5 -43 2 -11 0 -18
-4 -16 -4 3 -14 -7 -20 -22 -9 -18 -9 -28 -2 -30 6 -2 2 -13 -9 -25 -11 -11
-20 -30 -20 -41 1 -19 2 -19 15 4 16 29 20 19 4 -11 -5 -11 -14 -17 -19 -14
-5 3 -14 -4 -20 -15 -6 -11 -8 -20 -6 -20 3 0 -8 -23 -24 -50 -35 -60 -36 -63
-10 -55 15 5 20 2 20 -10 0 -13 -6 -16 -25 -11 -18 5 -27 1 -35 -14 -6 -11 -8
-20 -5 -20 3 0 -3 -8 -12 -18 -19 -20 -53 -78 -52 -89 0 -3 -4 -9 -10 -12 -6
-4 -29 -32 -51 -62 -23 -29 -64 -78 -93 -108 -29 -29 -52 -57 -52 -62 0 -5 -4
-9 -8 -9 -4 1 -29 -21 -55 -47 -25 -26 -43 -41 -38 -33 4 8 -1 5 -12 -7 -11
-12 -22 -19 -25 -16 -4 3 -11 -6 -16 -20 -5 -14 -16 -29 -23 -33 -10 -6 -10
-4 1 9 20 25 6 21 -52 -16 -29 -18 -60 -36 -70 -40 -10 -4 -15 -12 -12 -18 5
-7 12 -6 23 4 10 8 23 12 31 9 8 -2 11 -1 8 4 -3 5 8 17 24 27 l30 17 -21 -27
c-16 -20 -18 -28 -8 -35 11 -6 10 -8 0 -8 -7 0 -11 -4 -8 -8 2 -4 -7 -7 -22
-6 -15 1 -27 2 -27 3 0 2 -7 4 -15 6 -8 1 -19 4 -25 6 -19 6 -85 -25 -86 -41
0 -10 -2 -11 -6 -3 -4 10 -9 10 -26 1 -12 -6 -29 -13 -37 -15 -66 -12 -80 -16
-80 -22 0 -10 -32 -13 -213 -16 -92 -2 -170 1 -173 6 -3 5 -13 9 -22 9 -15 0
-15 -2 -2 -10 10 -7 11 -10 2 -10 -7 0 -15 6 -18 14 -7 17 -29 14 -75 -9 l-33
-17 29 -12 c23 -10 26 -14 13 -18 -10 -4 -23 1 -34 13 -24 26 -45 24 -83 -10
-21 -19 -40 -27 -54 -24 -18 3 -19 2 -6 -6 8 -5 26 -11 40 -13 13 -2 34 -10
47 -17 26 -14 57 -7 46 10 -4 7 -3 9 3 6 6 -4 19 0 29 8 25 19 42 19 61 0 14
-14 13 -15 -13 -10 -23 5 -26 4 -14 -5 12 -9 10 -11 -12 -7 -29 4 -57 -7 -45
-19 4 -5 27 -8 50 -8 23 0 45 -5 49 -11 4 -5 43 -10 88 -9 44 0 75 -3 69 -7
-7 -4 24 -10 67 -14 101 -10 367 0 372 14 2 6 21 8 45 5 23 -3 60 -1 82 4 33
8 35 10 13 11 -16 1 -28 6 -28 12 0 8 11 9 33 4 28 -7 70 -8 130 -5 30 2 9 17
-25 18 -25 1 -29 -2 -18 -10 12 -8 11 -8 -5 -3 -11 4 -26 10 -34 13 -9 3 -12
1 -8 -5 5 -8 -4 -8 -29 0 -30 9 -38 8 -48 -4 -6 -8 -19 -13 -30 -11 -11 2 -16
0 -12 -7 8 -13 -1 -13 -29 -1 -16 7 -13 9 23 15 23 4 42 12 42 18 0 6 16 7 41
3 22 -4 38 -3 35 2 -2 4 4 9 15 9 11 1 17 -2 14 -7 -5 -9 48 -6 80 5 14 5 16
4 7 -3 -23 -16 19 -21 82 -10 42 8 56 14 52 24 -3 8 -1 14 4 14 6 0 10 -4 10
-10 0 -13 37 -13 45 0 4 6 10 8 15 5 5 -3 11 -1 15 5 4 6 10 8 15 5 4 -3 32 2
61 11 30 9 61 18 69 21 10 3 11 6 3 11 -7 4 7 9 30 9 23 1 43 7 45 13 2 5 12
10 23 10 10 0 19 5 19 10 0 6 3 9 8 9 18 -3 35 2 29 8 -10 10 -58 13 -52 3 9
-15 -9 -19 -22 -4 -8 8 -9 15 -3 19 6 3 10 4 10 0 0 -3 10 -1 21 6 15 8 19 8
15 0 -10 -15 7 -14 23 2 9 7 11 7 8 1 -9 -16 18 -25 32 -11 7 7 19 12 27 12
22 0 53 53 37 63 -8 5 -9 13 -3 22 6 9 4 20 -3 29 -10 12 -9 13 8 4 20 -11 27
-13 45 -13 6 0 10 -7 10 -15 0 -8 5 -15 10 -15 6 0 10 11 10 25 0 14 -4 25
-10 25 -25 0 -6 17 38 32 36 13 42 14 28 2 -11 -7 -25 -14 -31 -14 -7 0 -12
-14 -13 -31 -1 -42 -16 -56 -38 -38 -16 12 -17 12 -11 -3 3 -10 2 -18 -3 -18
-6 0 -10 7 -10 15 0 8 -5 15 -11 15 -6 0 -8 -9 -4 -20 4 -12 1 -28 -7 -38 -9
-11 0 -8 27 8 77 46 85 52 78 63 -3 5 -1 7 5 3 5 -3 24 5 40 19 16 14 34 25
39 25 28 0 368 305 357 321 -3 5 -13 5 -25 -1 -10 -6 -18 -7 -17 -3 3 9 -5 13
-23 13 -8 0 -8 -5 1 -15 8 -9 9 -15 2 -15 -17 0 -25 21 -13 33 6 6 11 20 11
32 0 29 16 49 33 42 13 -5 14 -12 7 -38 -12 -42 -3 -50 21 -20 14 17 16 27 9
36 -12 15 -7 19 31 28 18 5 26 3 26 -8 0 -10 -9 -12 -31 -9 -21 4 -27 3 -18
-4 16 -11 12 -33 -8 -49 -11 -9 -12 -12 -2 -13 7 0 23 10 35 21 12 12 17 19
11 16 -6 -3 -11 0 -11 7 0 8 5 12 11 10 7 -3 27 12 46 31 29 30 32 37 20 45
-12 8 -11 10 7 10 12 0 31 12 42 28 12 15 24 32 29 37 4 6 12 17 17 25 8 13 7
13 -11 0 -17 -14 -18 -14 -6 2 8 10 19 16 24 15 6 -1 29 23 50 53 21 30 49 66
61 80 12 14 35 45 50 69 23 35 26 45 15 52 -7 5 -18 7 -25 4 -7 -2 -15 1 -19
8 -4 7 -4 9 1 5 4 -4 14 -3 22 3 10 9 13 8 13 0 0 -7 5 -9 11 -5 8 5 8 9 -1
14 -9 5 -9 9 -1 14 6 4 11 2 11 -4 0 -6 6 -8 13 -4 10 6 10 4 0 -7 -16 -16
-17 -29 -3 -29 6 0 10 6 10 14 0 8 6 21 13 28 7 7 22 26 32 41 l18 28 -36 -21
c-21 -12 -34 -27 -31 -32 4 -6 1 -9 -7 -6 -8 3 -52 -15 -98 -38 -46 -24 -88
-41 -93 -38 -4 3 -8 1 -8 -4 0 -11 -5 -11 -148 -12 -57 0 -112 4 -121 10 -10
5 -21 6 -25 3 -3 -3 -14 0 -23 9 -26 22 -95 59 -100 55 -2 -3 3 -11 11 -19 16
-16 4 -38 -21 -38 -17 0 -33 33 -24 49 6 9 10 7 14 -8 3 -12 11 -21 19 -21 9
0 9 3 2 8 -6 4 -10 14 -9 24 4 20 -49 73 -64 64 -6 -4 -9 -1 -6 6 3 7 -6 27
-20 43 -13 17 -24 24 -25 18 0 -7 -5 -13 -10 -13 -7 0 -8 6 -2 16 13 24 -79
207 -112 222 -21 9 -24 9 -19 -3 3 -8 10 -12 15 -9 6 4 8 -1 4 -13 -4 -12 -1
-25 8 -32 12 -10 14 -9 12 6 -2 10 -1 12 1 6 3 -7 9 -13 15 -13 6 0 5 -7 -3
-16 -12 -15 -15 -14 -32 7 -17 21 -20 22 -28 6 -12 -21 -32 -22 -49 -2 -9 10
-9 15 -1 15 6 0 11 -5 11 -11 0 -5 4 -8 10 -4 6 4 6 15 0 31 -6 14 -8 30 -5
34 3 5 -3 13 -12 19 -10 5 -15 13 -11 17 11 10 40 -17 34 -33 -7 -16 3 -43 16
-43 5 0 6 5 3 11 -9 14 4 66 13 53 7 -11 42 -27 42 -19 0 16 -25 53 -32 49 -5
-3 -16 2 -24 12 -14 18 -14 18 -5 -3 7 -13 7 -24 2 -28 -13 -7 -17 3 -19 45
-1 19 1 29 4 22 5 -10 9 -9 20 5 12 17 13 17 8 -3 -3 -12 -1 -25 5 -28 6 -4
11 -1 11 6 0 17 -41 212 -45 217 -2 1 -7 -13 -10 -33z m135 -411 c14 -18 13
-19 -1 -8 -14 11 -16 7 -17 -30 -1 -23 2 -37 6 -30 5 9 11 9 22 0 17 -13 20
-31 8 -43 -12 -11 -10 -44 2 -44 6 0 10 -9 10 -20 0 -30 -16 -24 -34 14 -20
42 -20 46 1 46 14 0 14 3 -4 23 -26 28 -37 84 -20 102 6 7 12 12 12 11 1 0 7
-10 15 -21z m-192 -76 c-1 -20 -4 -26 -9 -17 -7 10 -9 10 -9 -1 0 -8 -2 -12
-5 -9 -6 6 11 58 19 58 3 0 4 -14 4 -31z m-10 -83 c-10 -22 -9 -32 2 -49 12
-20 12 -21 -3 -8 -10 7 -17 23 -18 35 0 20 -1 21 -9 1 -7 -17 -9 -17 -9 -2 -1
9 -2 20 -2 25 -2 7 43 33 49 28 1 -2 -3 -16 -10 -30z m278 8 c-4 -19 -1 -24 9
-20 10 3 12 0 8 -11 -10 -25 -41 -54 -48 -43 -3 5 0 12 5 15 6 4 10 17 9 28
-2 21 9 57 17 57 3 0 2 -12 0 -26z m64 -36 c0 -17 -23 -3 -26 16 -2 14 0 15
12 5 8 -6 14 -16 14 -21z m-393 -40 c-3 -8 -6 -5 -6 6 -1 11 2 17 5 13 3 -3 4
-12 1 -19z m37 -46 c-8 -15 -14 -36 -14 -47 0 -31 -17 -52 -31 -38 -8 8 -5 23
12 59 12 27 21 56 20 63 -2 12 0 13 12 2 13 -10 13 -16 1 -39z m326 28 c0 -5
-4 -10 -10 -10 -5 0 -10 5 -10 10 0 6 5 10 10 10 6 0 10 -4 10 -10z m118 -14
c-7 -8 -15 -12 -17 -11 -5 6 10 25 20 25 5 0 4 -6 -3 -14z m486 0 c11 -1 24 3
28 8 4 6 10 7 14 3 4 -3 2 -13 -4 -20 -7 -8 -8 -18 -4 -22 4 -5 1 -5 -5 -1
-12 6 -18 -5 -14 -26 0 -5 -3 -8 -9 -8 -5 0 -10 5 -10 11 0 5 -5 7 -11 4 -6
-4 -13 2 -16 14 -4 17 -9 19 -24 10 -10 -5 -19 -7 -19 -3 0 13 35 42 44 36 5
-3 18 -5 30 -6z m-438 -33 c-6 -6 -36 9 -36 18 0 5 9 4 20 -3 10 -7 18 -14 16
-15z m344 -8 c0 -8 4 -15 9 -15 11 0 7 -47 -4 -58 -4 -4 -4 3 -1 16 9 27 3 28
-20 5 -10 -10 -19 -13 -21 -8 -2 6 -24 8 -50 6 -39 -3 -45 -1 -40 13 5 11 1
16 -14 16 -11 0 -17 5 -14 10 8 13 62 13 70 0 3 -6 -1 -7 -9 -4 -9 3 -16 1
-16 -5 0 -6 16 -11 38 -10 31 0 34 2 17 10 -15 7 -12 8 13 3 33 -6 41 3 20 24
-9 9 -8 12 5 12 9 0 17 -7 17 -15z m-310 -18 c48 -5 52 -4 32 6 -21 12 -21 13
15 14 29 0 33 -1 18 -7 l-20 -9 20 -1 c18 -1 17 -2 -4 -11 -13 -5 -33 -7 -44
-3 -12 4 -17 2 -13 -4 3 -6 1 -14 -5 -18 -6 -4 -16 1 -21 10 -5 9 -17 16 -27
16 -10 0 -25 7 -32 17 -13 15 -12 15 6 6 11 -6 45 -13 75 -16z m130 3 c18 -12
2 -12 -25 0 -13 6 -15 9 -5 9 8 0 22 -4 30 -9z m-20 -29 c0 -12 -39 -21 -58
-13 -13 4 -10 9 13 18 30 12 45 10 45 -5z m266 10 c-4 -5 -1 -11 6 -13 9 -3 8
-9 -4 -21 -19 -19 -33 -23 -22 -5 5 7 3 8 -5 4 -7 -5 -10 -15 -7 -23 3 -8 1
-11 -5 -8 -11 7 -3 41 15 61 13 15 30 19 22 5z m-970 -63 c-9 -12 -16 -19 -16
-15 0 11 24 47 28 42 2 -2 -3 -14 -12 -27z m734 12 c0 -5 -9 -10 -21 -10 -11
0 -17 5 -14 10 3 6 13 10 21 10 8 0 14 -4 14 -10z m110 1 c0 -13 -28 -22 -35
-11 -3 4 1 11 7 13 20 8 28 8 28 -2z m-774 -28 c-10 -10 -19 5 -10 18 6 11 8
11 12 0 2 -7 1 -15 -2 -18z m852 -2 c7 -4 4 -15 -9 -31 -11 -15 -17 -18 -13
-7 4 11 1 17 -10 17 -9 0 -16 5 -16 10 0 14 13 13 28 -2 9 -9 12 -9 12 -1 0 7
-4 15 -10 18 -5 3 -10 12 -10 18 0 8 3 7 9 -2 5 -7 13 -16 19 -20z m-323 9 c3
-5 -1 -10 -9 -10 -9 0 -16 5 -16 10 0 6 4 10 9 10 6 0 13 -4 16 -10z m80 0
c-3 -5 -11 -10 -16 -10 -6 0 -7 5 -4 10 3 6 11 10 16 10 6 0 7 -4 4 -10z m71
-27 c-10 -10 -19 5 -10 18 6 11 8 11 12 0 2 -7 1 -15 -2 -18z m24 -13 c0 -5
-5 -10 -11 -10 -5 0 -7 5 -4 10 3 6 8 10 11 10 2 0 4 -4 4 -10z m70 1 c0 -5
-12 -19 -27 -30 -23 -17 -25 -22 -13 -30 9 -7 20 -6 30 1 8 6 2 -1 -13 -16
-15 -14 -33 -26 -40 -26 -7 0 -6 4 3 10 13 8 13 13 2 31 -12 19 -11 24 10 45
24 23 48 31 48 15z m-913 -46 c0 -8 -4 -12 -9 -9 -5 3 -6 10 -3 15 9 13 12 11
12 -6z m810 -27 c-3 -7 -5 -2 -5 12 0 14 2 19 5 13 2 -7 2 -19 0 -25z m-817
-8 c0 -5 -2 -10 -4 -10 -3 0 -8 5 -11 10 -3 6 -1 10 4 10 6 0 11 -4 11 -10z
m886 -45 c-15 -14 -31 -23 -36 -20 -5 3 -11 1 -15 -5 -3 -5 -12 -10 -18 -10
-7 0 -4 6 5 14 13 10 15 15 6 24 -9 9 -9 12 0 12 7 0 15 -7 18 -15 5 -13 10
-12 31 5 36 28 41 25 9 -5z m-186 -15 c0 -5 -4 -10 -9 -10 -6 0 -13 5 -16 10
-3 6 1 10 9 10 9 0 16 -4 16 -10z m90 -20 c0 -5 1 -13 3 -17 3 -12 -73 -21
-80 -10 -3 6 2 16 12 24 22 15 65 18 65 3z m49 -33 c0 -9 -2 -8 -6 1 -2 6 -10
9 -15 6 -7 -4 -8 -2 -4 5 9 13 26 5 25 -12z m-864 -7 c3 -11 13 -27 22 -35 8
-9 13 -19 9 -22 -10 -10 -56 39 -56 59 0 24 17 23 25 -2z m-65 -20 c0 -5 -5
-10 -11 -10 -5 0 -7 5 -4 10 3 6 8 10 11 10 2 0 4 -4 4 -10z m20 -65 c0 0 -15
-1 -33 -2 -26 -1 -28 0 -12 7 l20 9 -20 0 c-15 1 -17 3 -6 10 9 6 20 3 32 -7
11 -9 19 -17 19 -17z m60 4 c0 -5 -9 -9 -20 -9 -22 0 -27 16 -7 23 15 5 27 -1
27 -14z m565 -19 c-3 -5 -10 -10 -16 -10 -5 0 -9 5 -9 10 0 6 7 10 16 10 8 0
12 -4 9 -10z m100 -30 c15 -16 21 -18 34 -7 14 11 14 9 0 -13 -15 -23 -37 -30
-31 -9 2 10 -42 12 -75 3 -26 -7 -32 -23 -35 -82 -1 -24 -5 -45 -10 -48 -5 -3
-7 0 -6 7 2 7 -6 14 -17 16 -16 3 -17 2 -5 -6 9 -7 10 -11 3 -11 -16 0 -26 17
-13 25 5 3 10 16 10 28 0 25 87 117 111 117 9 0 24 -9 34 -20z m-805 -13 c0
-7 -14 -20 -30 -29 -17 -9 -30 -23 -30 -31 0 -8 -7 -20 -15 -27 -8 -7 -12 -17
-8 -23 3 -6 1 -7 -5 -3 -14 9 -16 -13 -3 -46 7 -20 6 -24 -10 -24 -12 0 -15 4
-9 10 16 16 11 30 -5 16 -16 -13 -21 -1 -7 16 5 5 15 25 23 44 14 37 51 80 68
80 5 0 13 5 17 12 4 7 3 8 -4 4 -13 -8 -17 6 -6 17 9 9 24 -1 24 -16z m660 4
c0 -6 -4 -13 -10 -16 -5 -3 -10 1 -10 9 0 9 5 16 10 16 6 0 10 -4 10 -9z m131
-48 c13 -15 12 -15 -8 -4 -24 12 -29 21 -14 21 5 0 15 -7 22 -17z m-14 -20
c-3 -2 -7 -3 -10 -1 -2 2 -11 -3 -20 -10 -12 -10 -17 -10 -23 -1 -5 8 -3 9 6
4 10 -6 12 -4 7 7 -8 22 2 29 25 17 11 -6 17 -13 15 -16z m-775 -8 c0 -5 -5
-11 -11 -13 -6 -2 -11 4 -11 13 0 9 5 15 11 13 6 -2 11 -8 11 -13z m723 -44
c-3 -6 -11 -8 -17 -5 -6 4 -5 9 3 15 16 10 23 4 14 -10z m-186 -31 c8 0 11 6
7 15 -6 17 -4 18 18 9 9 -3 16 -14 16 -24 0 -11 11 -22 28 -28 15 -6 21 -11
15 -11 -7 -1 -13 -6 -13 -12 0 -5 5 -7 12 -3 7 4 8 3 4 -4 -4 -6 -13 -9 -21
-6 -8 4 -12 10 -9 15 3 5 0 9 -5 9 -14 0 -14 -13 -1 -26 8 -8 6 -15 -6 -25
-10 -8 -15 -9 -11 -2 4 6 3 14 -3 18 -5 3 -10 3 -10 -2 0 -4 -10 -8 -22 -9
-13 0 -32 -4 -43 -9 -20 -8 -20 -8 0 14 13 15 27 21 43 18 15 -3 26 2 33 15
14 27 2 40 -31 33 -33 -7 -72 19 -63 42 4 11 10 10 27 -6 12 -12 28 -21 35
-21z m-669 15 c-7 -8 -17 -15 -22 -15 -11 0 14 29 26 30 5 0 3 -7 -4 -15z
m778 -23 c2 -7 -3 -12 -12 -12 -9 0 -16 7 -16 16 0 17 22 14 28 -4z m-820 -4
c-2 -7 2 -12 9 -11 7 2 10 -4 6 -12 -5 -13 -7 -13 -18 2 -7 10 -11 21 -9 25 8
12 14 9 12 -4z m667 -38 c3 -5 1 -10 -4 -10 -6 0 -11 5 -11 10 0 6 2 10 4 10
3 0 8 -4 11 -10z m-695 -10 c0 -5 -4 -10 -10 -10 -5 0 -10 -5 -10 -12 0 -6 7
-4 18 5 25 23 35 21 20 -2 -15 -25 -48 -35 -48 -14 0 8 -5 11 -12 7 -7 -4 -4
2 7 14 22 23 35 27 35 12z m-55 -40 c3 -5 1 -10 -4 -10 -6 0 -11 5 -11 10 0 6
2 10 4 10 3 0 8 -4 11 -10z m89 -9 c3 -5 -6 -8 -20 -8 -19 0 -22 2 -13 8 18
11 26 11 33 0z m503 -28 c-3 -3 -11 -2 -17 2 -9 6 -9 10 1 16 14 8 27 -7 16
-18z m163 -2 c-13 -24 -31 -37 -28 -19 3 11 27 37 36 38 1 0 -2 -9 -8 -19z
m-820 -85 c0 -8 -13 -17 -29 -21 -16 -3 -32 -13 -35 -22 -7 -18 -19 -11 -23
15 -2 19 28 39 65 41 13 1 22 -5 22 -13z m-157 -72 c-4 -10 -9 -12 -15 -6 -12
12 -1 35 12 27 5 -3 6 -13 3 -21z m602 16 c7 -12 -10 -46 -22 -44 -4 1 -18 -2
-31 -7 -31 -12 -59 -11 -67 1 -8 12 -72 13 -79 1 -3 -5 6 -12 21 -16 19 -4 23
-9 14 -14 -10 -7 -10 -10 -1 -16 7 -4 15 -3 19 3 4 7 12 6 24 -3 16 -12 15
-14 -13 -23 -17 -6 -28 -7 -25 -2 3 5 -9 19 -28 32 -19 13 -32 31 -32 43 0 18
8 20 87 23 61 2 90 7 98 17 14 17 26 19 35 5z m-689 -19 c0 -11 -4 -18 -7 -15
-8 5 -24 -15 -24 -30 0 -5 -7 -11 -15 -13 -13 -4 -13 -3 0 6 13 9 12 11 -3 11
-11 0 -21 -9 -24 -20 -3 -11 -14 -20 -24 -20 -26 0 -24 16 4 24 20 7 20 8 4
15 -17 6 -16 8 8 19 14 7 30 10 34 7 5 -2 16 4 26 15 22 24 21 24 21 1z m434
9 c0 -5 -7 -10 -15 -10 -8 0 -15 5 -15 10 0 6 7 10 15 10 8 0 15 -4 15 -10z
m400 6 c0 -3 -4 -8 -10 -11 -5 -3 -10 -1 -10 4 0 6 5 11 10 11 6 0 10 -2 10
-4z m-750 -45 c0 -5 -15 -16 -32 -24 -18 -9 -41 -25 -50 -36 -19 -23 -35 -26
-58 -11 -11 7 -9 11 13 19 16 6 33 11 38 11 5 0 9 5 9 10 0 6 15 17 33 25 38
17 47 18 47 6z m-715 -21 c3 -5 1 -10 -4 -10 -6 0 -11 5 -11 10 0 6 2 10 4 10
3 0 8 -4 11 -10z m485 0 c0 -5 -2 -10 -4 -10 -3 0 -8 5 -11 10 -3 6 -1 10 4
10 6 0 11 -4 11 -10z m602 -30 c10 0 18 -4 18 -9 0 -5 10 -7 23 -4 14 3 9 -2
-13 -14 -34 -18 -59 -21 -30 -3 8 5 11 12 7 16 -3 4 -14 1 -22 -6 -20 -17 -41
1 -31 26 5 13 9 15 18 6 7 -7 20 -12 30 -12z m21 13 c-7 -2 -19 -2 -25 0 -7 3
-2 5 12 5 14 0 19 -2 13 -5z m-863 -13 c-12 -7 -8 -11 18 -16 40 -8 43 -22 2
-16 -18 3 -30 0 -30 -7 0 -6 -6 -11 -13 -11 -8 0 -14 8 -14 18 0 17 24 41 42
42 6 0 3 -5 -5 -10z m195 -4 c30 -6 75 -25 75 -31 0 -12 -112 0 -122 12 -6 7
-17 13 -25 13 -8 0 -11 5 -8 11 4 5 19 8 33 4 15 -3 36 -7 47 -9z m-307 -15
c6 -1 12 -5 12 -10 0 -4 -18 -8 -40 -8 -22 0 -40 3 -40 8 0 10 21 17 40 13 8
-1 21 -3 28 -3z m582 -6 c0 -8 -9 -15 -20 -15 -22 0 -27 15 -7 23 21 9 27 7
27 -8z m-870 -19 c0 -3 -4 -8 -10 -11 -5 -3 -10 -1 -10 4 0 6 5 11 10 11 6 0
10 -2 10 -4z m239 -25 c11 -7 9 -10 -8 -16 -11 -3 -21 -11 -21 -16 0 -5 -8 -9
-17 -9 -13 0 -10 6 12 21 l30 21 -30 -6 c-22 -5 -26 -4 -15 4 18 12 31 12 49
1z m96 -10 c28 -10 51 -25 53 -34 4 -20 -34 -12 -42 9 -6 16 -44 18 -82 4 -38
-15 -42 -5 -5 11 26 12 28 15 13 21 -38 15 15 6 63 -11z m255 9 c19 -6 9 -8
-38 -9 -40 -1 -61 3 -57 9 7 12 59 12 95 0z m230 -7 c0 -15 -26 -17 -35 -3 -4
6 -11 7 -17 4 -6 -4 -8 -2 -5 3 9 15 57 11 57 -4z m-65 -20 c-11 -3 -23 -10
-26 -15 -3 -5 -9 -3 -12 6 -5 13 0 16 26 15 21 -1 25 -3 12 -6z m-270 -23 c4
-6 -6 -10 -24 -10 -16 0 -33 5 -36 10 -4 6 6 10 24 10 16 0 33 -4 36 -10z"/>
<path d="M8880 9255 c0 -7 7 -15 15 -19 8 -3 15 -1 15 4 0 6 1 13 3 17 1 3 -6
7 -15 9 -10 1 -18 -4 -18 -11z"/>
<path d="M7530 8210 c0 -5 5 -10 10 -10 6 0 10 5 10 10 0 6 -4 10 -10 10 -5 0
-10 -4 -10 -10z"/>
<path d="M8800 9690 c-8 -5 -11 -12 -7 -16 4 -4 13 -2 19 4 15 15 7 24 -12 12z"/>
<path d="M5810 8395 c15 -18 45 -21 34 -2 -6 9 -4 9 8 -1 13 -10 17 -10 21 0
4 11 6 10 6 0 1 -7 5 -11 10 -8 5 3 14 -1 21 -9 8 -9 8 -15 2 -15 -6 0 -13 6
-15 13 -3 7 -6 4 -6 -6 -1 -10 -6 -15 -11 -12 -6 4 -8 10 -6 14 3 4 -1 8 -9 8
-8 0 -15 -3 -15 -7 0 -11 90 -66 162 -99 133 -60 133 -61 162 -46 28 15 37 2
10 -13 -27 -15 34 -33 76 -23 30 8 31 9 10 11 -14 1 -28 2 -32 1 -4 0 -5 6 -2
14 5 11 2 14 -12 9 -11 -4 -16 -4 -13 0 4 4 19 9 35 11 16 2 23 2 17 -1 -20
-9 -15 -24 7 -24 27 0 90 31 84 42 -3 4 10 8 28 8 25 0 29 3 18 10 -10 7 -11
10 -2 10 7 0 15 -7 18 -15 6 -15 24 -11 24 5 0 17 -37 20 -77 6 -31 -11 -40
-11 -40 -1 0 7 8 10 18 8 9 -3 20 0 23 6 4 6 6 11 4 11 -5 0 -161 56 -182 65
-16 7 -18 5 -13 -8 3 -9 1 -19 -5 -23 -6 -4 -8 -3 -5 3 4 6 0 13 -7 16 -10 4
-14 0 -13 -12 1 -14 9 -17 34 -15 28 1 32 -1 22 -12 -16 -20 -46 -17 -71 6
-24 22 -44 27 -32 8 4 -7 3 -8 -5 -4 -6 4 -9 12 -6 17 4 5 -2 9 -12 10 -10 0
-6 4 11 9 16 5 33 7 38 4 4 -3 15 -1 24 4 15 8 15 10 -1 16 -9 3 -22 3 -27 -1
-6 -3 -8 -1 -5 4 11 17 -28 22 -177 23 -123 0 -137 -1 -126 -15z m286 -12
c-11 -12 -56 -14 -56 -3 0 5 14 10 32 10 17 0 28 -3 24 -7z m-71 -32 c-7 -13
-81 -15 -89 -3 -3 5 18 10 45 11 34 1 49 -2 44 -8z m226 -29 c-7 -2 -18 1 -23
6 -8 8 -4 9 13 5 13 -4 18 -8 10 -11z m-246 -11 c-3 -5 4 -12 15 -16 11 -3 20
-11 20 -16 0 -5 -10 -3 -23 6 -13 8 -27 12 -32 8 -4 -5 -5 -3 -2 4 4 6 1 14
-5 16 -7 3 -3 6 10 6 13 1 21 -3 17 -8z m50 -11 c3 -6 -1 -7 -9 -4 -18 7 -21
14 -7 14 6 0 13 -4 16 -10z m49 -35 c3 -9 0 -15 -9 -15 -8 0 -15 4 -15 9 0 5
-8 12 -17 14 -12 3 -9 5 8 6 16 1 29 -5 33 -14z m162 0 c-27 -21 -53 -20 -36
0 7 8 22 15 34 15 21 -1 21 -1 2 -15z m44 -35 c-20 -13 -33 -13 -25 0 3 6 14
10 23 10 15 0 15 -2 2 -10z"/>
<path d="M6110 8345 c7 -8 17 -15 22 -15 6 0 5 7 -2 15 -7 8 -17 15 -22 15 -6
0 -5 -7 2 -15z"/>
<path d="M7210 8349 c0 -5 9 -9 20 -9 11 0 20 2 20 4 0 2 -9 6 -20 9 -11 3
-20 1 -20 -4z"/>
<path d="M5343 7828 c-261 -11 -486 -46 -718 -113 -169 -49 -225 -70 -225 -86
0 -6 6 -9 14 -6 141 54 364 89 724 112 127 8 266 17 309 21 50 4 200 -4 413
-20 351 -28 435 -38 719 -87 95 -16 176 -28 179 -25 7 8 -83 45 -163 66 -154
42 -427 85 -720 114 -260 26 -371 31 -532 24z"/>
<path d="M7875 7759 c-309 -29 -823 -113 -849 -139 -13 -13 8 -12 404 30 47 5
256 17 465 26 411 18 711 15 950 -10 77 -8 199 -20 270 -26 72 -7 163 -15 203
-19 64 -6 95 0 79 15 -12 12 -328 79 -442 93 -297 38 -831 53 -1080 30z"/>
<path d="M10624 13792 c-35 -43 -135 -166 -365 -452 l-166 -205 59 -47 60 -47
115 140 c98 119 117 138 130 127 23 -19 12 -69 -52 -227 -31 -78 -55 -145 -53
-150 7 -19 121 -102 128 -94 12 12 106 242 120 292 6 25 9 57 6 73 -5 27 -5
28 41 28 63 0 120 30 181 94 93 98 131 216 89 279 -14 21 -218 198 -252 219
-6 4 -24 -10 -41 -30z m89 -236 c42 -38 47 -66 19 -109 -25 -37 -52 -56 -81
-57 -34 0 -103 49 -96 68 9 23 99 131 111 131 5 1 27 -14 47 -33z"/>
<path d="M2658 13447 l-57 -52 83 -150 c45 -82 142 -258 215 -390 72 -132 135
-243 139 -247 5 -5 32 14 62 40 61 55 60 50 6 138 l-26 42 64 56 c35 31 70 56
76 56 7 0 36 -20 64 -44 l52 -44 59 53 c33 29 58 55 55 58 -28 26 -709 531
-720 533 -8 2 -41 -20 -72 -49z m289 -276 c57 -45 105 -87 109 -92 7 -12 -54
-79 -70 -79 -9 0 -151 228 -165 264 -5 13 -11 18 126 -93z"/>
<path d="M11264 13116 c-67 -31 -129 -87 -165 -151 -36 -62 -39 -138 -9 -235
28 -92 26 -107 -20 -152 -51 -47 -89 -51 -120 -11 -27 35 -21 72 20 130 l30
41 -53 46 -52 46 -39 -42 c-48 -53 -96 -152 -96 -198 1 -77 75 -174 154 -200
110 -36 302 73 371 211 33 64 33 135 0 233 -31 92 -31 101 0 131 68 69 141
-16 83 -98 l-22 -30 53 -49 53 -48 29 32 c66 74 94 168 69 232 -12 34 -77 104
-111 122 -42 21 -116 17 -175 -10z"/>
<path d="M1995 12730 c-22 -26 -41 -53 -43 -58 -1 -5 77 -78 175 -163 254
-221 339 -295 418 -366 l71 -62 129 150 c72 83 130 152 130 153 0 1 -35 33
-79 71 l-79 69 -36 -40 c-20 -21 -57 -63 -82 -92 l-45 -53 -254 221 c-140 121
-257 220 -260 220 -3 -1 -23 -23 -45 -50z"/>
<path d="M11713 12747 c-15 -13 -173 -133 -350 -266 -178 -133 -323 -244 -323
-247 0 -8 238 -322 249 -328 9 -6 151 96 153 110 0 3 -34 53 -77 111 -43 57
-74 108 -69 112 37 32 135 103 137 100 11 -14 141 -185 143 -188 2 -2 35 20
74 49 42 31 67 56 63 63 -4 7 -35 49 -70 93 -35 45 -63 86 -63 91 0 10 95 83
109 83 5 0 43 -45 86 -100 l76 -100 57 41 c31 22 65 47 75 54 18 12 10 25
-105 178 -67 91 -126 166 -130 166 -3 1 -19 -9 -35 -22z"/>
<path d="M1668 12265 c-21 -35 -38 -68 -38 -73 0 -5 24 -31 53 -58 28 -26 115
-107 192 -178 76 -72 173 -163 215 -201 41 -39 103 -97 137 -129 l61 -58 34
54 c19 29 38 59 42 66 5 8 -5 22 -25 40 -19 15 -44 36 -57 48 l-25 20 44 77
c24 42 49 77 55 77 5 0 38 -11 72 -24 l63 -25 25 42 c15 23 33 53 41 66 17 27
11 34 -42 50 -30 9 -573 195 -714 245 -41 14 -79 26 -85 26 -6 0 -28 -29 -48
-65z m354 -180 c78 -31 144 -57 146 -59 4 -5 -51 -96 -58 -96 -5 0 -188 155
-225 191 -11 10 -16 19 -12 19 4 0 71 -25 149 -55z"/>
<path d="M11874 12157 c-181 -74 -367 -224 -430 -348 -46 -92 -21 -210 59
-270 28 -21 42 -24 122 -23 69 0 103 5 148 23 l57 22 0 62 c0 68 -10 94 -31
82 -7 -5 -36 -14 -64 -20 -65 -15 -111 0 -121 39 -16 64 21 112 155 201 149
99 234 120 281 70 28 -30 23 -72 -16 -123 -15 -19 -22 -37 -17 -41 5 -3 31
-21 58 -40 l49 -35 43 50 c106 119 119 220 43 317 -61 77 -196 91 -336 34z"/>
<path d="M1440 11860 c-17 -33 -30 -62 -30 -65 0 -3 96 -53 213 -112 118 -59
204 -108 195 -111 -9 -2 -88 4 -175 13 -259 28 -323 32 -332 20 -5 -5 -20 -34
-35 -62 l-26 -53 92 -46 c51 -25 228 -116 394 -200 166 -85 304 -154 307 -154
7 0 70 120 65 125 -2 1 -99 51 -216 110 -117 59 -211 110 -208 112 2 3 46 0
98 -6 189 -22 409 -42 416 -37 17 10 65 117 56 125 -11 10 -720 373 -767 393
-14 6 -23 -4 -47 -52z"/>
<path d="M12211 11589 c-181 -35 -403 -156 -478 -261 -47 -65 -59 -116 -44
-184 23 -103 123 -174 245 -174 136 1 406 110 519 211 80 71 110 126 110 199
0 166 -142 250 -352 209z m103 -159 c35 -13 60 -54 52 -85 -17 -69 -165 -162
-317 -199 -78 -19 -122 -13 -149 22 -49 61 -5 129 125 193 132 65 235 90 289
69z"/>
<path d="M1243 11180 c-81 -17 -131 -54 -164 -125 -73 -157 58 -317 334 -409
262 -87 439 -66 512 59 101 171 -36 341 -352 439 -139 43 -238 54 -330 36z
m313 -191 c145 -51 211 -105 200 -164 -4 -16 -16 -39 -27 -50 -30 -31 -140
-27 -249 9 -107 36 -132 49 -181 93 -30 27 -39 43 -39 67 0 32 26 66 60 80 32
12 152 -5 236 -35z"/>
<path d="M12565 11003 c-60 -19 -123 -38 -140 -43 -71 -18 -576 -177 -581
-183 -3 -3 2 -30 11 -59 9 -29 18 -58 20 -65 3 -8 22 -6 67 9 208 66 390 119
394 115 2 -2 -74 -65 -168 -140 -95 -75 -186 -147 -201 -159 l-29 -23 18 -68
c16 -60 21 -68 39 -64 11 3 133 39 270 82 138 42 318 97 400 122 83 24 153 48
157 51 8 8 -19 111 -32 126 -7 7 -109 -21 -428 -120 -24 -8 -40 -9 -37 -3 4 5
48 42 99 82 263 204 306 239 306 245 -1 22 -37 126 -45 128 -6 1 -59 -14 -120
-33z"/>
<path d="M957 10584 c-14 -50 -29 -125 -26 -129 4 -3 265 -64 652 -152 175
-40 209 -45 217 -33 7 12 23 93 25 124 0 5 -63 24 -140 41 -77 18 -241 56
-365 85 -124 29 -241 56 -260 60 -19 4 -49 11 -66 15 -26 6 -33 4 -37 -11z"/>
<path d="M12840 10332 c-25 -3 -263 -39 -435 -67 -49 -8 -162 -26 -249 -40
-88 -14 -161 -27 -163 -29 -7 -6 36 -245 50 -278 41 -98 197 -145 393 -118
240 32 387 93 449 185 23 35 26 47 22 100 -6 82 -28 228 -36 240 -3 6 -17 9
-31 7z m-135 -211 c17 -103 -79 -153 -317 -168 -125 -7 -150 3 -167 64 -16 56
-14 62 22 67 17 3 104 17 192 31 88 14 180 29 205 34 25 5 48 9 52 10 3 0 9
-17 13 -38z"/>
<path d="M871 10097 c-19 -122 -36 -227 -38 -234 -3 -7 6 -14 19 -17 63 -13
188 -29 193 -24 3 2 8 32 11 65 10 89 8 88 100 74 44 -7 104 -16 134 -21 30
-4 142 -22 249 -39 107 -17 195 -30 196 -29 3 5 25 121 25 134 0 7 -15 16 -32
19 -31 5 -174 27 -483 76 -71 11 -135 22 -142 24 -8 3 -9 15 -3 42 5 21 10 56
12 78 l3 39 -70 12 c-39 6 -86 14 -105 17 l-36 5 -33 -221z"/>
<path d="M1635 9715 c-33 -8 -179 -37 -325 -65 -146 -28 -314 -61 -375 -73
l-110 -23 -3 -85 -3 -85 183 -42 c269 -61 565 -130 632 -147 33 -8 62 -13 64
-10 2 2 5 36 6 76 l1 73 -35 7 c-19 4 -52 10 -72 13 l-38 7 0 94 0 94 58 6
c97 11 92 6 92 96 0 43 -3 79 -7 78 -5 0 -35 -7 -68 -14z m-269 -312 c-4 -5
-306 54 -313 60 -3 3 197 37 297 50 11 2 16 -10 18 -51 2 -30 1 -56 -2 -59z"/>
<path d="M12064 9658 c3 -39 8 -73 10 -75 1 -2 34 -9 72 -16 l69 -12 3 -84 c2
-46 -1 -88 -5 -92 -4 -4 -38 -14 -75 -21 l-68 -13 0 -77 c0 -56 4 -78 13 -78
6 0 59 11 117 25 58 14 222 52 365 85 143 33 290 68 328 77 l67 16 0 82 0 83
-47 11 c-27 5 -73 15 -103 21 -30 6 -203 40 -384 75 -181 36 -338 65 -349 65
-19 0 -19 -4 -13 -72z m546 -163 c58 -9 107 -18 109 -20 2 -2 -7 -7 -20 -10
-22 -5 -280 -55 -285 -55 -5 0 -14 102 -10 109 3 5 27 5 53 1 27 -5 95 -16
153 -25z"/>
<path d="M1414 9118 c-11 -13 -54 -112 -54 -122 0 -3 9 -6 21 -6 39 0 107 -22
128 -41 21 -19 27 -61 15 -94 -17 -43 -147 -75 -308 -75 -137 0 -196 28 -196
94 0 37 19 58 73 81 20 8 37 18 37 20 0 3 -14 33 -30 66 -36 69 -31 69 -150
11 -101 -50 -132 -93 -132 -185 1 -72 15 -108 59 -148 75 -68 162 -92 334 -91
195 1 328 32 428 100 70 47 96 96 96 177 0 127 -73 185 -276 220 -24 5 -39 2
-45 -7z"/>
<path d="M12070 9087 c0 -19 -3 -54 -6 -79 l-6 -45 113 -6 c227 -14 250 -17
247 -41 -3 -24 -54 -52 -119 -65 -24 -5 -90 -19 -145 -32 l-102 -23 -6 -45
c-3 -24 -6 -63 -6 -86 l0 -42 113 23 c148 32 237 61 266 87 17 16 25 18 28 9
21 -57 106 -106 208 -120 131 -18 238 16 268 85 19 45 45 329 31 342 -8 7
-165 20 -659 52 -77 5 -159 11 -182 14 l-43 6 0 -34z m686 -172 c18 -4 20 -9
14 -60 -3 -30 -12 -61 -19 -68 -6 -6 -36 -12 -66 -12 -80 0 -101 26 -97 123
l2 32 73 -6 c39 -3 81 -7 93 -9z"/>
<path d="M1410 8505 c-352 -59 -530 -203 -476 -387 18 -63 59 -107 131 -140
43 -20 66 -23 170 -22 98 0 139 5 225 28 182 47 306 121 352 210 27 51 29 136
3 186 -37 74 -81 105 -180 126 -73 16 -127 16 -225 -1z m174 -159 c64 -27 64
-108 -1 -154 -16 -11 -56 -30 -90 -41 -66 -22 -224 -51 -252 -45 -59 11 -74
17 -91 34 -33 33 -26 77 18 119 77 73 326 125 416 87z"/>
<path d="M12665 8454 c-300 -61 -308 -61 -508 -26 -118 20 -170 26 -172 18 -9
-27 -24 -130 -20 -134 5 -5 148 -32 283 -53 69 -11 90 -21 314 -156 133 -79
242 -142 243 -141 2 4 25 144 25 156 0 5 -61 43 -135 83 -74 40 -132 76 -128
80 5 3 44 12 88 18 44 6 110 17 147 23 l67 11 10 51 c18 99 20 116 13 115 -4
-1 -106 -21 -227 -45z"/>
<path d="M1865 7880 c-33 -5 -130 -16 -215 -25 -441 -46 -603 -64 -606 -68 -2
-1 6 -33 18 -70 19 -64 21 -67 52 -67 17 0 60 5 95 11 35 5 94 14 130 19 36 4
133 18 215 30 81 11 153 19 159 17 12 -4 -26 -25 -341 -192 -111 -59 -204
-110 -207 -114 -2 -4 6 -40 19 -79 26 -82 7 -82 156 4 47 28 212 124 368 214
225 131 282 169 281 185 0 30 -42 138 -54 140 -5 2 -37 -1 -70 -5z"/>
<path d="M11801 7777 c-11 -30 -42 -108 -70 -174 -76 -182 -78 -164 25 -207
48 -20 88 -35 89 -34 2 2 24 55 50 118 26 63 50 119 55 123 10 11 160 -52 160
-67 0 -6 -18 -57 -41 -114 -23 -57 -40 -104 -38 -106 11 -10 153 -65 159 -61
3 2 24 50 46 106 21 56 45 104 52 106 9 4 113 -30 130 -43 2 -1 -19 -57 -46
-123 l-50 -122 27 -13 c63 -31 145 -59 148 -50 2 5 37 90 77 189 41 99 70 184
66 188 -6 7 -98 45 -550 227 -107 43 -212 86 -232 94 l-37 16 -20 -53z"/>
<path d="M11613 7338 c-6 -7 -36 -62 -67 -121 -46 -89 -56 -117 -56 -158 0
-121 101 -225 327 -338 133 -67 184 -83 278 -88 96 -6 140 9 177 58 32 43 134
236 128 242 -3 3 -79 44 -170 92 -91 48 -192 102 -225 120 -33 18 -100 53
-150 80 -49 26 -122 65 -161 86 -55 30 -74 36 -81 27z m159 -241 c24 -13 97
-52 163 -87 66 -34 144 -76 172 -92 l53 -29 -15 -29 c-33 -63 -85 -75 -180
-39 -134 50 -285 158 -285 204 0 17 37 95 45 95 2 0 24 -11 47 -23z"/>
<path d="M1798 7054 c-38 -19 -68 -37 -68 -39 0 -3 18 -41 40 -85 22 -44 40
-83 40 -88 0 -4 -30 -23 -67 -41 -78 -38 -69 -44 -135 84 -22 44 -42 81 -43
83 -3 3 -128 -59 -153 -76 -10 -7 5 -45 69 -168 45 -87 85 -163 90 -168 6 -7
371 169 508 246 19 11 92 48 162 84 l128 64 -31 60 c-17 33 -34 63 -39 65 -4
3 -68 -25 -141 -62 -73 -37 -145 -73 -161 -80 l-28 -12 -41 84 c-24 47 -47 85
-53 85 -5 -1 -40 -17 -77 -36z"/>
<path d="M11284 6766 c-42 -19 -103 -95 -120 -152 -24 -80 11 -162 109 -256
42 -40 532 -368 550 -368 3 0 24 27 46 61 l40 60 -147 96 c-410 267 -402 261
-402 326 0 45 26 67 79 67 55 0 30 15 422 -241 74 -49 138 -89 142 -89 3 0 25
27 47 60 l41 60 -116 75 c-63 41 -167 109 -231 150 -129 85 -229 138 -289 154
-54 15 -133 13 -171 -3z"/>
<path d="M2288 6736 c-182 -64 -393 -234 -456 -367 -49 -102 -42 -180 23 -257
43 -52 80 -66 165 -66 98 1 182 33 310 119 201 135 314 291 296 408 -26 158
-163 225 -338 163z m130 -182 c27 -30 27 -47 3 -100 -24 -53 -141 -152 -237
-200 -55 -27 -80 -35 -114 -32 -58 4 -86 39 -76 94 18 94 287 287 376 269 14
-3 35 -17 48 -31z"/>
<path d="M10900 6283 c-32 -12 -73 -47 -101 -86 -43 -59 -41 -127 7 -222 19
-40 48 -85 64 -100 l28 -27 58 22 c32 11 61 23 66 26 4 3 -6 23 -22 45 -44 62
-56 104 -35 135 27 41 57 50 109 30 90 -34 261 -187 291 -261 20 -46 19 -68
-4 -96 -22 -27 -81 -30 -129 -5 l-29 15 -18 -57 c-10 -31 -20 -63 -22 -70 -7
-18 116 -72 180 -79 67 -7 114 8 156 49 77 76 86 164 28 280 -76 153 -287 334
-456 393 -42 15 -141 19 -171 8z"/>
<path d="M2860 6077 c-79 -33 -141 -78 -240 -176 -182 -181 -250 -340 -189
-441 21 -33 185 -200 198 -200 3 0 147 141 319 313 l313 313 -93 90 c-51 50
-107 99 -125 108 -45 22 -118 20 -183 -7z m88 -171 c15 -8 35 -23 46 -35 18
-20 18 -21 -153 -191 -95 -93 -177 -170 -182 -170 -25 0 -59 55 -59 96 0 39
48 108 132 191 69 68 147 123 176 123 7 0 25 -6 40 -14z"/>
<path d="M10590 5961 l-54 -49 37 -57 c21 -31 37 -62 35 -69 -4 -16 -115 -116
-129 -116 -6 0 -33 18 -59 40 -26 22 -52 40 -56 40 -5 -1 -34 -24 -64 -51
l-55 -51 25 -19 c138 -104 705 -509 712 -509 5 0 36 23 68 52 l59 51 -26 46
c-15 25 -56 98 -93 161 -37 63 -127 220 -201 348 -73 127 -136 232 -139 232
-3 0 -30 -22 -60 -49z m220 -483 c43 -67 77 -125 75 -126 -6 -6 -245 181 -245
191 0 16 74 76 84 67 4 -4 43 -64 86 -132z"/>
<path d="M3282 5793 c-97 -219 -117 -279 -109 -323 6 -25 4 -26 -47 -26 -65 0
-122 -31 -190 -103 -93 -101 -122 -210 -71 -277 26 -34 233 -214 247 -214 8 0
568 668 568 679 0 8 -99 91 -109 91 -4 0 -58 -61 -121 -136 l-114 -136 -18 22
c-22 27 -23 24 52 205 32 77 60 145 62 152 3 11 -108 113 -122 113 -4 0 -16
-21 -28 -47z m-132 -513 c12 0 70 -50 70 -60 0 -4 -16 -27 -35 -50 -20 -24
-44 -54 -55 -68 l-20 -24 -36 27 c-53 40 -62 68 -38 112 21 39 71 76 92 68 8
-3 17 -5 22 -5z"/>
<path d="M10072 5532 c-29 -26 -52 -50 -52 -55 0 -4 92 -121 205 -260 113
-138 205 -255 205 -260 0 -4 -27 -28 -60 -53 l-59 -47 44 -56 c25 -31 55 -69
68 -85 l24 -29 104 84 c57 47 139 113 182 148 43 35 77 67 75 71 -5 14 -122
160 -128 160 -3 0 -30 -20 -60 -45 -30 -25 -59 -45 -65 -44 -5 0 -57 59 -115
131 -197 247 -291 363 -303 375 -9 9 -24 1 -65 -35z"/>
<path d="M3725 5471 c-3 -5 -56 -159 -119 -343 -62 -183 -127 -372 -143 -419
l-30 -86 69 -41 c38 -23 72 -42 76 -41 6 1 445 469 569 607 l52 58 -65 39 -66
38 -51 -57 -52 -56 -72 46 c-40 25 -73 52 -73 59 0 8 9 38 20 66 12 29 19 58
16 64 -4 10 -108 75 -120 75 -3 0 -7 -4 -11 -9z m72 -417 c27 -16 41 -30 37
-37 -11 -19 -172 -203 -191 -218 -15 -12 -16 -12 -9 6 17 43 58 152 73 195 18
54 31 80 40 80 3 0 26 -12 50 -26z"/>
<path d="M9732 5307 c-37 -22 -51 -37 -48 -49 2 -10 104 -184 226 -387 l221
-369 60 35 c33 20 61 39 64 43 6 10 -443 755 -458 757 -6 2 -36 -12 -65 -30z"/>
<path d="M9355 5106 c-27 -13 -60 -34 -72 -47 -101 -110 -55 -353 112 -605
110 -165 243 -229 360 -175 84 39 125 111 125 217 0 210 -179 527 -344 609
-63 31 -117 32 -181 1z m214 -232 c49 -56 116 -183 135 -257 27 -102 1 -157
-73 -157 -51 0 -118 73 -175 192 -76 156 -81 237 -17 270 44 22 80 9 130 -48z"/>
<path d="M4308 5111 c-156 -50 -350 -360 -374 -596 -13 -128 51 -234 162 -265
130 -37 280 81 393 307 129 258 118 462 -27 537 -40 21 -117 29 -154 17z m79
-213 c28 -32 35 -69 23 -125 -16 -73 -94 -224 -143 -279 -40 -43 -49 -49 -86
-49 -111 0 -106 137 10 341 24 42 59 89 77 105 41 36 89 39 119 7z"/>
<path d="M8962 4918 c-62 -25 -62 -15 -8 -163 87 -235 114 -315 108 -314 -4 0
-83 88 -175 194 l-169 194 -51 -21 c-29 -11 -59 -23 -68 -25 -15 -4 -14 -11 7
-66 27 -74 151 -414 224 -617 29 -80 55 -148 59 -152 7 -8 109 26 124 41 4 4
-29 108 -73 230 -45 123 -79 225 -77 227 2 2 79 -84 173 -191 93 -107 173
-195 178 -195 16 0 126 42 126 49 0 7 -15 49 -140 391 -45 124 -99 272 -120
330 -21 58 -44 106 -52 107 -7 1 -37 -8 -66 -19z"/>
<path d="M4813 4883 c-33 -6 -99 -78 -127 -136 -51 -110 -57 -208 -15 -261
l20 -26 -24 -9 c-88 -34 -160 -199 -136 -311 13 -60 44 -87 134 -118 33 -11
97 -34 141 -51 l82 -30 22 62 c48 134 223 616 251 691 16 44 26 83 22 87 -4 4
-64 28 -133 52 -123 44 -193 59 -237 50z m127 -209 c22 -9 40 -17 40 -18 0 -4
-47 -139 -55 -158 -6 -16 -10 -16 -58 2 -66 25 -80 44 -72 94 13 88 60 114
145 80z m-127 -330 c26 -9 47 -19 47 -23 0 -3 -13 -40 -29 -81 -31 -81 -34
-83 -98 -53 -37 17 -47 40 -38 83 7 30 50 90 64 90 4 0 28 -7 54 -16z"/>
<path d="M6839 4360 l-62 -191 -191 6 c-105 3 -196 2 -203 -3 -7 -4 28 -35 94
-82 58 -41 132 -94 163 -117 l58 -42 -61 -185 c-33 -102 -58 -188 -55 -191 3
-3 78 46 166 110 l161 116 141 -103 c188 -137 180 -132 186 -126 3 3 -23 90
-57 192 -34 103 -60 188 -58 190 2 1 75 53 162 115 87 62 155 116 152 120 -4
3 -95 6 -203 6 l-196 0 -60 188 c-34 103 -64 187 -68 187 -4 0 -35 -86 -69
-190z"/>
<path d="M11723 3889 c-125 -104 -244 -207 -262 -227 -19 -20 -152 -117 -295
-214 -233 -158 -261 -179 -259 -202 1 -14 -2 -25 -7 -23 -4 1 -76 -38 -159
-88 -130 -77 -150 -92 -145 -110 4 -11 3 -17 0 -14 -4 4 -75 -30 -159 -75
-150 -81 -152 -82 -150 -114 2 -44 5 -46 43 -27 18 9 35 14 38 10 4 -4 26 -77
49 -163 l42 -157 -30 -65 c-32 -70 -64 -110 -86 -110 -27 0 -62 131 -49 183 3
13 20 30 41 40 31 15 35 20 29 44 -9 39 -9 39 -59 15 -25 -12 -51 -22 -59 -22
-22 0 -57 46 -72 95 -18 63 -18 94 2 102 21 8 34 -14 34 -58 0 -20 3 -38 6
-42 4 -3 24 3 46 14 38 19 40 23 35 56 -9 52 -32 81 -77 94 -36 11 -44 10 -87
-13 -28 -14 -60 -42 -77 -66 -69 -98 -15 -252 88 -252 31 0 30 2 11 -43 -19
-46 -19 -124 0 -170 57 -137 227 -109 310 52 19 38 27 32 39 -26 6 -26 4 -32
-13 -38 -24 -7 -25 -11 -10 -54 l11 -32 42 24 c22 14 74 41 114 62 63 32 73
41 68 59 -3 11 -6 27 -6 34 0 10 -8 12 -30 7 -16 -4 -30 -5 -30 -2 0 2 -23 87
-51 188 -27 101 -57 209 -65 239 -8 30 -16 62 -19 71 -4 13 8 25 45 46 47 26
51 30 46 58 -4 21 -3 26 4 15 8 -13 13 -12 40 4 18 10 35 14 39 10 7 -8 60
-171 139 -423 24 -78 25 -84 9 -96 -20 -14 -21 -32 -4 -62 12 -21 14 -20 122
45 l111 67 -9 33 c-10 33 -25 40 -45 20 -6 -6 -13 -10 -15 -7 -8 8 -167 494
-167 509 0 8 20 26 45 39 42 22 45 27 39 54 -4 20 -3 27 5 23 5 -4 85 43 176
104 l165 110 15 -37 c9 -20 14 -44 13 -52 -2 -8 -50 -47 -108 -87 -124 -85
-160 -131 -160 -206 0 -121 93 -214 192 -193 39 9 107 70 125 112 27 66 10
145 -40 192 l-26 24 -41 -27 -41 -27 26 -20 c46 -37 74 -126 45 -144 -34 -21
-100 69 -100 138 0 43 10 55 95 111 62 41 71 44 77 29 5 -10 35 -85 67 -168
58 -146 59 -150 40 -165 -17 -13 -18 -20 -8 -48 6 -17 14 -32 17 -32 3 0 54
32 113 71 103 68 107 72 98 96 -16 42 -20 45 -44 29 l-22 -15 -83 212 c-129
329 -119 296 -90 316 14 9 49 40 78 69 29 29 58 52 63 50 6 -2 30 -41 55 -87
l44 -84 -20 -22 c-67 -71 3 -225 101 -225 84 0 134 126 92 232 l-17 42 45 38
c24 21 47 38 51 38 3 0 32 -50 63 -111 53 -104 56 -112 40 -129 -15 -17 -15
-20 0 -50 19 -36 5 -43 137 68 l88 73 -17 27 c-9 15 -18 29 -20 31 -2 2 -11
-3 -22 -13 -14 -13 -20 -14 -28 -4 -5 7 -63 116 -128 243 l-118 229 43 37 c42
36 43 38 30 68 -7 17 -16 31 -20 31 -5 0 -111 -86 -237 -191z m111 -147 l45
-88 -44 -38 c-25 -20 -48 -35 -53 -32 -4 2 -27 43 -52 90 l-45 85 40 35 c22
19 45 35 51 36 7 0 32 -40 58 -88z"/>
<path d="M2025 3767 c-46 -22 -99 -71 -123 -114 -10 -17 -11 -17 -29 0 -25 22
-32 21 -63 -3 l-25 -20 32 -28 33 -27 -176 -155 c-242 -213 -229 -203 -255
-189 -18 9 -25 7 -47 -15 -14 -14 -24 -27 -21 -29 45 -35 193 -139 202 -143 7
-2 24 7 37 21 23 24 24 27 7 36 -9 6 -17 14 -17 18 0 4 90 87 200 185 l201
177 30 -22 c17 -12 28 -24 25 -27 -3 -3 58 -48 135 -100 l142 -95 -74 -71
c-41 -38 -99 -94 -130 -124 -67 -64 -118 -81 -174 -58 -46 19 -46 52 -2 102
52 60 105 94 147 94 39 0 70 -23 70 -53 0 -24 12 -21 43 11 l27 29 -36 38
c-107 109 -277 99 -384 -22 -105 -119 -53 -242 109 -259 33 -4 61 -9 61 -11 0
-2 -12 -14 -27 -27 -22 -19 -31 -22 -50 -13 -19 9 -27 7 -43 -11 -11 -12 -20
-25 -20 -29 0 -4 48 -39 106 -77 l105 -69 27 26 27 27 -22 15 c-21 15 -18 19
145 174 92 87 182 171 200 186 l32 27 48 -31 47 -30 27 26 c15 15 27 27 25 28
-1 1 -105 71 -230 155 -126 84 -231 159 -234 166 -2 7 -29 29 -59 50 -30 21
-54 39 -54 41 0 14 55 86 82 106 76 57 156 56 198 -3 35 -49 24 -101 -40 -186
l-39 -51 64 -47 c34 -25 65 -46 67 -46 3 0 19 28 37 63 64 126 51 227 -38 310
-69 65 -123 89 -206 94 -58 3 -78 0 -120 -20z"/>
<path d="M12185 3331 c-32 -19 -85 -76 -85 -91 0 -19 24 -60 34 -60 6 0 19 14
28 30 9 17 24 30 33 30 9 0 57 -12 106 -26 l90 -26 32 26 c18 13 45 36 62 49
l30 25 -40 10 c-224 59 -244 61 -290 33z"/>
<path d="M2590 3085 c-12 -13 -19 -28 -16 -34 4 -6 36 -27 71 -47 36 -19 68
-40 71 -46 4 -5 -5 -21 -19 -35 l-25 -25 -38 26 c-51 35 -102 35 -144 0 -46
-40 -64 -79 -51 -116 6 -17 11 -33 11 -34 0 -2 -14 -4 -30 -4 -41 0 -80 -21
-119 -65 -25 -29 -31 -44 -31 -81 0 -39 5 -51 33 -79 44 -44 129 -69 210 -62
l60 5 -21 -20 c-16 -17 -24 -19 -35 -10 -11 9 -20 5 -41 -17 l-28 -29 113 -67
114 -67 22 29 23 28 -22 16 c-22 17 -21 18 147 195 92 99 176 187 186 198 17
18 19 18 68 -13 28 -17 51 -29 51 -26 0 3 18 -4 41 -15 22 -12 39 -25 37 -30
-2 -5 -79 -97 -173 -205 -153 -176 -173 -195 -196 -191 -19 4 -33 -2 -49 -19
-13 -14 -22 -27 -19 -29 12 -12 214 -116 226 -116 7 0 20 12 30 26 16 24 16
27 0 36 -9 5 -17 13 -17 17 0 7 288 348 340 404 4 5 30 -3 58 -18 l51 -27 25
29 c13 15 24 28 23 29 -1 1 -47 25 -102 54 -55 29 -123 66 -151 81 -28 16 -57
29 -64 29 -7 0 -142 77 -299 171 -157 95 -289 173 -292 175 -3 2 -16 -7 -29
-21z m309 -234 c11 -7 -11 -36 -105 -132 -65 -67 -126 -130 -136 -140 -43 -46
-194 -44 -219 3 -14 25 11 63 61 92 32 19 32 19 76 -4 l43 -24 26 24 c14 13
25 26 25 29 0 3 -23 19 -50 34 -57 32 -64 55 -24 86 35 28 47 27 108 -9 l52
-29 49 49 c49 50 51 50 94 21z"/>
<path d="M9750 2579 c-85 -33 -208 -80 -273 -105 l-118 -46 3 -37 c2 -30 6
-36 24 -33 19 2 21 -5 33 -95 19 -143 35 -193 75 -232 33 -32 38 -33 90 -29
38 3 53 1 49 -6 -4 -6 -28 -43 -55 -83 -26 -40 -48 -76 -48 -81 0 -5 9 -17 21
-28 17 -16 22 -16 30 -4 5 8 42 69 81 134 40 66 73 115 74 110 2 -5 7 -33 12
-62 9 -51 8 -54 -14 -62 -20 -8 -23 -14 -17 -42 3 -18 7 -34 8 -36 3 -4 235
84 242 92 3 2 2 19 -2 36 -6 26 -11 30 -33 28 l-26 -3 -37 255 c-21 140 -38
260 -39 266 0 6 23 21 50 32 47 20 50 23 50 56 0 22 -5 36 -12 36 -7 -1 -83
-28 -168 -61z m-57 -221 c27 -176 24 -194 -36 -233 -28 -18 -29 -18 -48 2 -16
16 -24 49 -39 154 -10 74 -15 137 -11 141 5 6 97 44 112 47 3 1 13 -50 22
-111z"/>
<path d="M3690 2481 c-57 -30 -93 -83 -93 -135 0 -24 7 -56 16 -69 16 -25 16
-25 -17 -31 -82 -16 -166 -106 -166 -179 0 -49 21 -86 68 -117 32 -22 46 -25
129 -25 51 0 93 -1 93 -3 0 -1 -7 -14 -16 -28 -14 -20 -22 -24 -44 -19 -22 5
-30 1 -44 -21 -10 -14 -14 -30 -9 -34 4 -4 58 -28 118 -54 l110 -46 22 27 c28
35 28 37 -1 49 -24 9 -20 14 136 232 l160 223 42 -24 c22 -13 118 -50 213 -82
l172 -58 -22 -40 c-12 -22 -27 -41 -32 -43 -6 -3 -64 14 -130 37 -146 50 -209
51 -270 5 -40 -30 -85 -114 -85 -156 1 -42 36 -108 68 -124 40 -21 103 -30
147 -22 48 9 112 68 125 114 17 62 14 69 -37 86 -26 9 -47 16 -48 16 -1 0 0
-11 2 -25 7 -35 -33 -114 -62 -121 -36 -9 -48 4 -42 44 8 48 49 106 85 121 27
11 40 9 114 -17 46 -16 83 -33 83 -38 0 -5 -40 -75 -90 -156 -82 -134 -92
-146 -115 -141 -20 3 -29 -2 -43 -26 -14 -24 -15 -32 -5 -36 7 -2 64 -22 126
-43 l112 -39 20 31 19 31 -22 9 c-12 6 -24 11 -26 12 -6 5 281 464 290 464 5
0 26 -7 46 -15 19 -8 48 -15 64 -15 15 0 31 -5 34 -10 4 -6 -13 -49 -37 -95
l-43 -85 -42 0 c-78 0 -143 -85 -130 -167 8 -49 32 -71 82 -79 62 -9 125 22
167 80 17 25 38 46 45 46 27 0 103 -25 103 -33 0 -6 -26 -59 -57 -118 -51 -97
-59 -108 -79 -103 -18 5 -26 -1 -39 -26 -9 -18 -15 -33 -13 -34 5 -5 234 -66
245 -66 10 0 33 42 33 60 0 6 -6 10 -14 10 -8 0 -18 4 -21 10 -3 5 49 116 117
245 117 224 124 235 148 230 87 -19 95 -18 108 10 7 16 9 31 5 35 -4 4 -53 19
-108 34 -440 116 -556 147 -595 160 -226 74 -432 150 -588 216 -103 44 -192
80 -198 80 -7 0 -14 -7 -18 -15 -8 -22 -22 -18 -23 7 -7 85 -151 139 -243 89z
m168 -79 c2 -7 -12 -27 -32 -46 -20 -18 -36 -35 -36 -38 0 -8 60 -38 76 -38 7
0 24 14 38 30 25 30 26 30 61 16 19 -8 35 -17 35 -20 0 -3 -45 -67 -101 -143
-108 -149 -120 -158 -221 -170 -62 -7 -98 2 -98 26 0 23 92 127 120 136 10 3
35 -1 55 -9 35 -15 38 -15 56 7 10 12 18 25 19 28 0 4 -22 16 -50 28 -45 20
-50 25 -50 54 0 73 110 192 128 139z m1304 -501 c-39 -89 -88 -170 -102 -167
-8 3 -34 10 -58 16 -25 6 -42 16 -40 23 2 7 22 49 45 93 l42 82 60 -15 c49
-12 58 -18 53 -32z"/>
<path d="M8692 2146 c-178 -45 -326 -86 -330 -92 -4 -6 -45 -18 -92 -27 -267
-50 -508 -98 -525 -106 -11 -5 -76 -16 -144 -24 -68 -8 -127 -20 -131 -27 -5
-8 -17 -6 -41 9 -42 26 -91 26 -144 2 -76 -35 -115 -95 -115 -176 0 -47 33
-98 71 -110 20 -7 19 -9 -12 -38 -44 -44 -69 -102 -69 -164 0 -44 5 -58 31
-88 59 -67 140 -67 246 1 l53 34 0 -35 c0 -30 -3 -35 -24 -35 -19 0 -25 -7
-31 -36 -3 -20 -4 -38 -1 -41 6 -6 245 25 258 33 4 3 8 18 8 35 0 24 -4 29
-25 29 -17 0 -25 5 -25 18 0 37 50 514 55 521 2 5 28 11 56 14 29 4 55 10 58
15 5 7 200 48 289 60 l32 4 0 -49 0 -50 -132 -27 c-154 -31 -200 -56 -235
-126 -13 -24 -23 -63 -23 -85 0 -50 35 -122 72 -149 56 -40 177 -14 227 50 34
43 44 97 28 152 l-13 47 -48 -2 c-26 -1 -50 -4 -53 -6 -2 -3 3 -17 13 -32 36
-55 14 -159 -30 -142 -40 16 -46 151 -9 189 16 16 190 57 196 47 1 -2 1 -84
-1 -182 l-4 -177 -24 -6 c-19 -5 -24 -13 -24 -40 0 -20 5 -34 13 -34 6 0 65
10 130 22 l117 22 0 39 c0 37 -2 39 -25 33 l-25 -6 0 108 c0 60 3 183 7 275
l6 166 41 6 c23 4 55 16 72 26 47 29 64 25 64 -13 0 -18 3 -63 6 -100 l7 -67
-36 -15 c-49 -20 -70 -64 -65 -133 15 -178 226 -134 245 51 l6 54 55 16 c31 8
58 13 61 10 3 -2 7 -61 9 -129 l4 -125 -26 -9 c-22 -9 -25 -14 -19 -43 3 -18
6 -34 7 -35 1 -1 57 13 126 30 78 20 125 37 124 45 -1 6 -2 23 -2 37 -2 21 -6
24 -25 19 -23 -5 -24 -3 -30 72 -4 42 -7 166 -7 274 l0 197 55 12 c53 12 55
13 55 46 0 19 -3 36 -7 38 -5 2 -153 -32 -331 -77z m68 -170 l0 -103 -32 -7
c-18 -3 -45 -9 -60 -12 l-28 -6 0 104 0 105 43 10 c81 20 77 25 77 -91z
m-1373 -178 c-4 -18 -9 -43 -13 -55 -6 -22 -3 -23 40 -23 l46 0 11 45 c10 40
14 45 40 45 34 0 33 16 13 -190 l-15 -165 -47 -44 c-50 -47 -106 -76 -124 -65
-16 10 -3 128 19 166 16 27 26 34 58 36 43 4 55 14 55 50 0 20 -4 22 -59 22
-33 0 -63 5 -67 11 -16 26 -21 82 -12 126 12 54 23 73 46 73 11 0 13 -8 9 -32z"/>
<path d="M6827 2150 c-108 -21 -149 -159 -82 -278 14 -24 25 -46 25 -48 0 -2
-88 -4 -195 -4 -149 0 -195 -3 -195 -12 0 -7 -3 -23 -6 -35 l-6 -23 171 0 c94
0 171 -2 171 -4 0 -2 -18 -82 -39 -178 -38 -165 -42 -175 -76 -206 -29 -27
-43 -33 -73 -30 l-37 3 2 70 c3 145 80 229 150 163 18 -17 23 -18 23 -6 0 9 3
29 6 46 6 29 4 31 -37 42 -156 42 -298 -70 -315 -247 -13 -142 99 -209 237
-140 29 14 54 25 56 24 1 -2 -1 -16 -6 -33 -5 -19 -15 -30 -30 -32 -23 -4 -25
-7 -35 -54 l-6 -28 130 0 c96 0 132 3 134 13 18 57 17 67 -9 67 -30 0 -31 10
-10 94 7 34 33 145 56 249 l42 187 58 0 c50 0 57 2 63 23 12 46 10 47 -79 47
l-84 0 -12 43 c-23 85 12 219 60 225 13 2 28 -1 34 -7 6 -6 14 -11 17 -11 10
0 31 51 25 60 -5 9 -73 31 -85 29 -3 -1 -22 -5 -43 -9z"/>
<path d="M5595 1868 l-13 -33 41 -7 c23 -3 63 -9 89 -13 53 -7 62 -21 60 -89
-2 -44 -45 -147 -72 -171 -17 -15 -19 -13 -31 27 -25 79 -109 89 -156 19 -30
-44 -29 -82 2 -111 23 -22 25 -30 25 -120 0 -82 3 -101 20 -123 28 -35 81 -51
150 -44 83 7 100 19 100 69 l0 41 -23 -21 c-29 -28 -73 -29 -87 -3 -5 11 -10
56 -10 100 0 70 2 81 18 81 25 0 113 44 141 71 l24 23 -7 -25 c-24 -77 -18
-89 41 -89 l32 0 -25 -67 c-45 -122 -45 -123 -69 -123 -17 0 -24 -7 -29 -32
-4 -19 -2 -34 5 -39 6 -4 53 -12 103 -18 50 -7 100 -14 112 -17 16 -4 22 1 31
30 12 38 9 46 -19 46 -10 0 -18 4 -18 8 0 5 41 115 90 245 50 130 90 241 90
248 0 8 18 9 63 5 l62 -7 12 32 c7 18 11 34 10 36 -4 4 -705 103 -730 103 -11
0 -23 -13 -32 -32z m442 -100 c21 -3 21 -5 -21 -112 -31 -81 -48 -111 -64
-117 -22 -8 -72 4 -72 17 0 4 12 37 26 73 21 51 25 74 20 111 l-6 47 47 -8
c27 -4 58 -9 70 -11z"/>
<path d="M8850 1454 c-52 -23 -70 -43 -70 -81 0 -38 17 -43 45 -13 10 11 25
20 34 20 9 0 50 -29 92 -64 l76 -65 72 21 c39 12 71 24 71 28 0 11 -186 149
-216 160 -35 14 -63 12 -104 -6z"/>
<path d="M4845 1279 c-9 -17 -14 -33 -11 -37 3 -3 25 -6 48 -6 l42 -1 37 -95
37 -94 76 -17 c42 -9 76 -14 76 -10 0 17 -100 224 -116 243 -30 33 -69 48
-123 48 -46 0 -52 -3 -66 -31z"/>
</g>
</svg>
